<?xml version="1.0" encoding="UTF-8"?>
<svg version="1.1" xmlns="http://www.w3.org/2000/svg" width="312" height="161">
<path d="M0 0 C102.96 0 205.92 0 312 0 C312 53.13 312 106.26 312 161 C209.04 161 106.08 161 0 161 C0 107.87 0 54.74 0 0 Z " fill="#AFC8DB" transform="translate(0,0)"/>
<path d="M0 0 C0.495 0.495 0.495 0.495 1 1 C3.32817964 1.36760731 5.6618385 1.70241581 8 2 C8 2.99 8 3.98 8 5 C8.61746094 5.10957031 9.23492187 5.21914063 9.87109375 5.33203125 C15.77712501 6.4377266 21.35197559 7.95361435 27 10 C27 10.66 27 11.32 27 12 C27.99 12 28.98 12 30 12 C30 12.66 30 13.32 30 14 C30.69867188 14.18175781 31.39734375 14.36351563 32.1171875 14.55078125 C33.02726562 14.80214844 33.93734375 15.05351563 34.875 15.3125 C35.77992187 15.55613281 36.68484375 15.79976562 37.6171875 16.05078125 C40 17 40 17 42 20 C46.51273123 21.82658169 51.27503115 22.85949028 56 24 C56 24.66 56 25.32 56 26 C58.97 25.505 58.97 25.505 62 25 C62 25.66 62 26.32 62 27 C62.99 27.33 63.98 27.66 65 28 C65.33 28.66 65.66 29.32 66 30 C66.33 29.34 66.66 28.68 67 28 C67.66 28.33 68.32 28.66 69 29 C69.66 29 70.32 29 71 29 C71 29.66 71 30.32 71 31 C71.99 30.67 72.98 30.34 74 30 C74 30.66 74 31.32 74 32 C75.98 32 77.96 32 80 32 C80 30.35 80 28.7 80 27 C80.66 27 81.32 27 82 27 C82.33 28.65 82.66 30.3 83 32 C84.56249809 30.68798827 84.56249809 30.68798827 86 29 C86 28.01 86 27.02 86 26 C82.7 26 79.4 26 76 26 C76 25.34 76 24.68 76 24 C77.98 24 79.96 24 82 24 C78.99580359 22.9986012 76.12290635 22.48578543 73 22 C73.639375 21.896875 74.27875 21.79375 74.9375 21.6875 C75.618125 21.460625 76.29875 21.23375 77 21 C77.33 20.01 77.66 19.02 78 18 C78.99 18.33 79.98 18.66 81 19 C80.01 17.68 79.02 16.36 78 15 C78.33 14.34 78.66 13.68 79 13 C80.98 14.32 82.96 15.64 85 17 C85.33 16.01 85.66 15.02 86 14 C86 14.66 86 15.32 86 16 C86.66 16 87.32 16 88 16 C88 14.35 88 12.7 88 11 C90 13 90 13 91 16 C91.66 15.34 92.32 14.68 93 14 C93.33 15.32 93.66 16.64 94 18 C96.31 17.01 98.62 16.02 101 15 C101 16.98 101 18.96 101 21 C101.66 20.34 102.32 19.68 103 19 C103 18.67 103 18.34 103 18 C105.31 17.67 107.62 17.34 110 17 C109.67 18.32 109.34 19.64 109 21 C108.01 21 107.02 21 106 21 C106 22.32 106 23.64 106 25 C103 26 103 26 100 25 C97.87183587 25.15688424 97.87183587 25.15688424 96 26 C94.66666667 29 94.66666667 29 96 32 C96.66 32.33 97.32 32.66 98 33 C98 32.34 98 31.68 98 31 C100.97 31 103.94 31 107 31 C107 31.66 107 32.32 107 33 C109.31 33 111.62 33 114 33 C114.33 33.99 114.66 34.98 115 36 C115.928125 36.37125 115.928125 36.37125 116.875 36.75 C120.11699493 38.65705584 120.64233959 41.60196994 122 45 C140.5011962 45.36276855 154.66931199 44.08454122 169 31 C169.66 31 170.32 31 171 31 C170.14687505 34.63266109 169.04278356 38.17246968 167.93359375 41.734375 C167.73524429 42.37240051 167.53689484 43.01042603 167.33253479 43.66778564 C166.70189378 45.69551492 166.06971921 47.72276229 165.4375 49.75 C165.00836208 51.12887468 164.57932451 52.50778059 164.15039062 53.88671875 C163.10142239 57.25817504 162.05107872 60.62920099 161 64 C162.15048828 64.23009766 162.15048828 64.23009766 163.32421875 64.46484375 C164.20722656 64.64144531 165.09023437 64.81804687 166 65 C167.3921875 65.2784375 167.3921875 65.2784375 168.8125 65.5625 C169.534375 65.706875 170.25625 65.85125 171 66 C171.33 66.99 171.66 67.98 172 69 C167.71 69 163.42 69 159 69 C159 69.66 159 70.32 159 71 C185.07 71 211.14 71 238 71 C238 83.87 238 96.74 238 110 C135.04 110 32.08 110 -74 110 C-74 76.34 -74 42.68 -74 8 C-68.06 7.505 -68.06 7.505 -62 7 C-42.45762511 5.71847512 -42.45762511 5.71847512 -24 0 C-15.93607257 -0.89709947 -8.02603102 -1.38379845 0 0 Z " fill="#658AA7" transform="translate(74,51)"/>
<path d="M0 0 C2 2 2 2 3 5 C3.66 4.34 4.32 3.68 5 3 C5.495 4.98 5.495 4.98 6 7 C8.31 6.01 10.62 5.02 13 4 C13 5.98 13 7.96 13 10 C13.66 9.34 14.32 8.68 15 8 C15 7.67 15 7.34 15 7 C18.465 6.505 18.465 6.505 22 6 C21.67 7.32 21.34 8.64 21 10 C20.01 10 19.02 10 18 10 C18 11.32 18 12.64 18 14 C15 15 15 15 12 14 C9.87183587 14.15688424 9.87183587 14.15688424 8 15 C6.66666667 18 6.66666667 18 8 21 C8.66 21.33 9.32 21.66 10 22 C10 21.34 10 20.68 10 20 C12.97 20 15.94 20 19 20 C19 20.66 19 21.32 19 22 C21.31 22 23.62 22 26 22 C26.495 23.485 26.495 23.485 27 25 C27.61875 25.2475 28.2375 25.495 28.875 25.75 C32.11699493 27.65705584 32.64233959 30.60196994 34 34 C52.5011962 34.36276855 66.66931199 33.08454122 81 20 C81.66 20 82.32 20 83 20 C82.14687505 23.63266109 81.04278356 27.17246968 79.93359375 30.734375 C79.73524429 31.37240051 79.53689484 32.01042603 79.33253479 32.66778564 C78.70189378 34.69551492 78.06971921 36.72276229 77.4375 38.75 C77.00836208 40.12887468 76.57932451 41.50778059 76.15039062 42.88671875 C75.10142239 46.25817504 74.05107872 49.62920099 73 53 C74.15048828 53.23009766 74.15048828 53.23009766 75.32421875 53.46484375 C76.20722656 53.64144531 77.09023437 53.81804687 78 54 C79.3921875 54.2784375 79.3921875 54.2784375 80.8125 54.5625 C81.534375 54.706875 82.25625 54.85125 83 55 C83.33 55.99 83.66 56.98 84 58 C79.71 58 75.42 58 71 58 C71 58.66 71 59.32 71 60 C97.07 60 123.14 60 150 60 C150 72.87 150 85.74 150 99 C128.37355812 99.02254525 106.74712572 99.04097813 85.12067509 99.05181217 C75.07987613 99.05697558 65.03908497 99.06401912 54.99829102 99.07543945 C46.25004698 99.08538493 37.50180859 99.0918531 28.75355905 99.09408849 C24.11845001 99.09539583 19.48335713 99.09848315 14.84825325 99.10573006 C10.49074521 99.11248813 6.13326008 99.1146174 1.7757473 99.11310768 C0.17167156 99.11338411 -1.43240491 99.11539049 -3.03647614 99.11920547 C-5.2169273 99.12413941 -7.39729057 99.12299942 -9.57774353 99.12025452 C-10.80096282 99.12117631 -12.02418211 99.1220981 -13.28446865 99.12304783 C-16 99 -16 99 -17 98 C-18.155 97.835 -19.31 97.67 -20.5 97.5 C-24 97 -24 97 -25 96 C-27.3452769 95.44049636 -29.70155796 94.92670421 -32.0625 94.4375 C-33.35285156 94.16808594 -34.64320312 93.89867187 -35.97265625 93.62109375 C-36.97167969 93.41613281 -37.97070312 93.21117187 -39 93 C-39 91.35 -39 89.7 -39 88 C-31.7009597 85.37983169 -24.76625333 83.66952113 -17 84 C-17 83.01 -17 82.02 -17 81 C-15.68 80.34 -14.36 79.68 -13 79 C-13 77.35 -13 75.7 -13 74 C-13.66 74 -14.32 74 -15 74 C-16 72 -16 72 -16 61 C-24.91 60.67 -33.82 60.34 -43 60 C-43 58.35 -43 56.7 -43 55 C-46.11785113 55.64644661 -46.11785113 55.64644661 -47 58 C-47.08308638 59.37548156 -47.10736016 60.75485796 -47.09765625 62.1328125 C-47.09443359 62.93847656 -47.09121094 63.74414062 -47.08789062 64.57421875 C-47.07951172 65.41597656 -47.07113281 66.25773437 -47.0625 67.125 C-47.05798828 67.97449219 -47.05347656 68.82398438 -47.04882812 69.69921875 C-47.03702874 71.79950909 -47.01909306 73.8997633 -47 76 C-50.82810821 77.27603607 -54.23475107 76.86283987 -58.1875 76.5625 C-58.93708984 76.51029297 -59.68667969 76.45808594 -60.45898438 76.40429688 C-62.30637082 76.27486216 -64.15324371 76.13813482 -66 76 C-66 76.66 -66 77.32 -66 78 C-59.73 78 -53.46 78 -47 78 C-47 78.66 -47 79.32 -47 80 C-60.2 80 -73.4 80 -87 80 C-87.33 79.34 -87.66 78.68 -88 78 C-81.73 78 -75.46 78 -69 78 C-69 77.34 -69 76.68 -69 76 C-74.94 76 -80.88 76 -87 76 C-87 70.06 -87 64.12 -87 58 C-71.655 57.505 -71.655 57.505 -56 57 C-56.33 56.01 -56.66 55.02 -57 54 C-56.0625 51.3125 -56.0625 51.3125 -55 49 C-54.01 49 -53.02 49 -52 49 C-51.67 47.68 -51.34 46.36 -51 45 C-51.66 45 -52.32 45 -53 45 C-52.67 42.69 -52.34 40.38 -52 38 C-51.34 38 -50.68 38 -50 38 C-50.08378906 37.36191406 -50.16757813 36.72382812 -50.25390625 36.06640625 C-50.35574219 35.24011719 -50.45757812 34.41382813 -50.5625 33.5625 C-50.66691406 32.73878906 -50.77132812 31.91507813 -50.87890625 31.06640625 C-50.93884766 30.04353516 -50.93884766 30.04353516 -51 29 C-50 28 -50 28 -47.93359375 27.90234375 C-46.69802734 27.91974609 -46.69802734 27.91974609 -45.4375 27.9375 C-44.61121094 27.94652344 -43.78492188 27.95554687 -42.93359375 27.96484375 C-41.97646484 27.98224609 -41.97646484 27.98224609 -41 28 C-41.185625 27.030625 -41.37125 26.06125 -41.5625 25.0625 C-41.706875 24.051875 -41.85125 23.04125 -42 22 C-41 21 -41 21 -38.4375 20.9375 C-37.2309375 20.9684375 -37.2309375 20.9684375 -36 21 C-35.505 19.515 -35.505 19.515 -35 18 C-35 18.99 -35 19.98 -35 21 C-34.34 20.67 -33.68 20.34 -33 20 C-32.505 18.515 -32.505 18.515 -32 17 C-29.9375 16.3125 -29.9375 16.3125 -28 16 C-28 15.34 -28 14.68 -28 14 C-27.34 14 -26.68 14 -26 14 C-26 14.66 -26 15.32 -26 16 C-25.01 16.33 -24.02 16.66 -23 17 C-22.505 17.99 -22.505 17.99 -22 19 C-21.67 18.34 -21.34 17.68 -21 17 C-20.34 17.33 -19.68 17.66 -19 18 C-18.34 18 -17.68 18 -17 18 C-17 18.66 -17 19.32 -17 20 C-16.01 19.67 -15.02 19.34 -14 19 C-14 19.66 -14 20.32 -14 21 C-12.02 21 -10.04 21 -8 21 C-8 19.35 -8 17.7 -8 16 C-7.34 16 -6.68 16 -6 16 C-5.505 18.475 -5.505 18.475 -5 21 C-3.43750191 19.68798827 -3.43750191 19.68798827 -2 18 C-2 17.01 -2 16.02 -2 15 C-5.3 15 -8.6 15 -12 15 C-12 14.34 -12 13.68 -12 13 C-10.02 13 -8.04 13 -6 13 C-9.00419641 11.9986012 -11.87709365 11.48578543 -15 11 C-14.360625 10.896875 -13.72125 10.79375 -13.0625 10.6875 C-12.381875 10.460625 -11.70125 10.23375 -11 10 C-10.67 9.01 -10.34 8.02 -10 7 C-9.01 7.33 -8.02 7.66 -7 8 C-7.99 6.68 -8.98 5.36 -10 4 C-9.67 3.34 -9.34 2.68 -9 2 C-7.02 3.32 -5.04 4.64 -3 6 C-2.67 5.01 -2.34 4.02 -2 3 C-2 3.66 -2 4.32 -2 5 C-1.34 5 -0.68 5 0 5 C0 3.35 0 1.7 0 0 Z " fill="#282726" transform="translate(162,62)"/>
<path d="M0 0 C0.66 0 1.32 0 2 0 C2.99 0.99 2.99 0.99 4 2 C4 1.34 4 0.68 4 0 C7.47611041 0.29795232 8.77330757 0.76701055 11.25 3.3125 C18.35011528 10.25124902 28.87747726 12.05791603 38.4375 13.125 C39.53481445 13.25455078 39.53481445 13.25455078 40.65429688 13.38671875 C42.43560094 13.59628393 44.21772281 13.79887868 46 14 C46 14.99 46 15.98 46 17 C15.84938354 12.23292236 15.84938354 12.23292236 8 7 C12.50096574 11.50096574 19.81024071 12.92687711 25.8125 14.125 C26.59351074 14.28967773 27.37452148 14.45435547 28.17919922 14.62402344 C34.09841673 15.85897689 40.03611314 17.00164009 46 18 C45.505 20.475 45.505 20.475 45 23 C44.34 23 43.68 23 43 23 C43 21.68 43 20.36 43 19 C42.20980469 18.98582031 41.41960937 18.97164062 40.60546875 18.95703125 C14.86873508 17.86873508 14.86873508 17.86873508 9 12 C9.08378906 13.13179687 9.16757813 14.26359375 9.25390625 15.4296875 C9.35706608 16.91143781 9.45991453 18.39320982 9.5625 19.875 C9.64661133 20.99455078 9.64661133 20.99455078 9.73242188 22.13671875 C10.11328125 27.7734375 10.11328125 27.7734375 9 30 C9.66 30 10.32 30 11 30 C11 31.32 11 32.64 11 34 C10.34 34 9.68 34 9 34 C9 34.99 9 35.98 9 37 C20.22 37 31.44 37 43 37 C43 37.66 43 38.32 43 39 C44.485 39.495 44.485 39.495 46 40 C34.78 40 23.56 40 12 40 C12 45.94 12 51.88 12 58 C17.94 58 23.88 58 30 58 C30 58.66 30 59.32 30 60 C24.06 60.33 18.12 60.66 12 61 C31.8 61.495 31.8 61.495 52 62 C52 61.34 52 60.68 52 60 C45.73 60 39.46 60 33 60 C33 59.34 33 58.68 33 58 C34.21558594 58.01160156 35.43117188 58.02320313 36.68359375 58.03515625 C38.26822764 58.04453278 39.85286318 58.05363313 41.4375 58.0625 C42.23994141 58.07087891 43.04238281 58.07925781 43.86914062 58.08789062 C45.91295221 58.0965143 47.95683902 58.0522815 50 58 C51.42729363 56.80663174 51.42729363 56.80663174 51.02734375 53.359375 C50.98919268 51.05023149 50.93728185 48.74215965 50.87304688 46.43359375 C50.81002361 42.1405975 51.00071227 38.92017203 53 35 C53.33 35.66 53.66 36.32 54 37 C54.66 37 55.32 37 56 37 C56 38.65 56 40.3 56 42 C64.91 42 73.82 42 83 42 C84.04976964 45.14930893 84.10131595 47.38814456 84.0625 50.6875 C84.05347656 51.68136719 84.04445312 52.67523438 84.03515625 53.69921875 C84.01775391 54.83810547 84.01775391 54.83810547 84 56 C84.66 56 85.32 56 86 56 C86.33 57.65 86.66 59.3 87 61 C85.35 61.66 83.7 62.32 82 63 C82 63.99 82 64.98 82 66 C75.07 67.32 68.14 68.64 61 70 C60.67 71.65 60.34 73.3 60 75 C61.010625 75.144375 62.02125 75.28875 63.0625 75.4375 C65.0115625 75.7159375 65.0115625 75.7159375 67 76 C68.27875 76.165 69.5575 76.33 70.875 76.5 C74 77 74 77 75 78 C76.155 78.144375 77.31 78.28875 78.5 78.4375 C80.2325 78.7159375 80.2325 78.7159375 82 79 C82.33 79.66 82.66 80.32 83 81 C34.82 81 -13.36 81 -63 81 C-63 68.46 -63 55.92 -63 43 C-40.23 43 -17.46 43 6 43 C3.07913311 23.98731892 3.07913311 23.98731892 0 5 C0 3.35 0 1.7 0 0 Z " fill="#232327" transform="translate(63,80)"/>
<path d="M0 0 C-0.85312495 3.63266109 -1.95721644 7.17246968 -3.06640625 10.734375 C-3.26475571 11.37240051 -3.46310516 12.01042603 -3.66746521 12.66778564 C-4.29810622 14.69551492 -4.93028079 16.72276229 -5.5625 18.75 C-5.99163792 20.12887468 -6.42067549 21.50778059 -6.84960938 22.88671875 C-7.89857761 26.25817504 -8.94892128 29.62920099 -10 33 C-8.84951172 33.23009766 -8.84951172 33.23009766 -7.67578125 33.46484375 C-6.79277344 33.64144531 -5.90976563 33.81804687 -5 34 C-3.6078125 34.2784375 -3.6078125 34.2784375 -2.1875 34.5625 C-1.465625 34.706875 -0.74375 34.85125 0 35 C0.33 35.99 0.66 36.98 1 38 C-3.29 38 -7.58 38 -12 38 C-12 38.66 -12 39.32 -12 40 C14.07 40 40.14 40 67 40 C67 52.87 67 65.74 67 79 C39.61 79 12.22 79 -16 79 C-16 74.38 -16 69.76 -16 65 C-29.86 65 -43.72 65 -58 65 C-58 64.67 -58 64.34 -58 64 C-44.14 64 -30.28 64 -16 64 C-16 63.01 -16 62.02 -16 61 C-23.59 61 -31.18 61 -39 61 C-39 60.67 -39 60.34 -39 60 C-31.41 60 -23.82 60 -16 60 C-16 59.34 -16 58.68 -16 58 C-28.375 58.495 -28.375 58.495 -41 59 C-41 59.66 -41 60.32 -41 61 C-46.28 60.67 -51.56 60.34 -57 60 C-57 60.99 -57 61.98 -57 63 C-57.66 63 -58.32 63 -59 63 C-58.67 64.32 -58.34 65.64 -58 67 C-58.66 67 -59.32 67 -60 67 C-60 56.11 -60 45.22 -60 34 C-57.03 33.505 -57.03 33.505 -54 33 C-54.33 33.99 -54.66 34.98 -55 36 C-52.69 36.33 -50.38 36.66 -48 37 C-48 37.66 -48 38.32 -48 39 C-47.01 38.34 -46.02 37.68 -45 37 C-41.90551758 36.77294922 -41.90551758 36.77294922 -38.14453125 36.8046875 C-37.48289474 36.8075174 -36.82125824 36.81034729 -36.13957214 36.81326294 C-34.03036263 36.82444082 -31.92158075 36.84954019 -29.8125 36.875 C-28.38086552 36.88503293 -26.94922436 36.89415824 -25.51757812 36.90234375 C-22.01158023 36.92437205 -18.50583187 36.95888515 -15 37 C-15 35.35 -15 33.7 -15 32 C-14.34 32 -13.68 32 -13 32 C-13.2475 31.236875 -13.495 30.47375 -13.75 29.6875 C-14.11760019 24.26539714 -12.05369351 19.953544 -10 15 C-10.61746094 15.19335938 -11.23492187 15.38671875 -11.87109375 15.5859375 C-14.57351298 16.4168183 -17.28520066 17.21059026 -20 18 C-21.00740234 18.31904297 -21.00740234 18.31904297 -22.03515625 18.64453125 C-30.11150169 20.87636428 -38.6997883 20.16116916 -47 20 C-47 19.34 -47 18.68 -47 18 C-45.74703125 17.93941406 -44.4940625 17.87882812 -43.203125 17.81640625 C-41.55207276 17.73197744 -39.90103165 17.64733061 -38.25 17.5625 C-37.425 17.52318359 -36.6 17.48386719 -35.75 17.44335938 C-34.95078125 17.40146484 -34.1515625 17.35957031 -33.328125 17.31640625 C-32.22839355 17.26141968 -32.22839355 17.26141968 -31.10644531 17.20532227 C-28.98822395 16.99885215 -27.0480544 16.56867914 -25 16 C-26.794375 16.2475 -26.794375 16.2475 -28.625 16.5 C-35.07041997 17.23219971 -41.52295265 17.08292095 -48 17 C-48 16.34 -48 15.68 -48 15 C-46.88882813 14.95101562 -45.77765625 14.90203125 -44.6328125 14.8515625 C-29.10033631 14.1050946 -11.51582182 0 0 0 Z " fill="#060203" transform="translate(245,82)"/>
<path d="M0 0 C26.4 0 52.8 0 80 0 C80 6.93 80 13.86 80 21 C53.6 21 27.2 21 0 21 C0 14.07 0 7.14 0 0 Z " fill="#DED8D0" transform="translate(232,140)"/>
<path d="M0 0 C8.91 0 17.82 0 27 0 C28.04976964 3.14930893 28.10131595 5.38814456 28.0625 8.6875 C28.05347656 9.68136719 28.04445313 10.67523438 28.03515625 11.69921875 C28.02355469 12.45847656 28.01195312 13.21773437 28 14 C28.66 14 29.32 14 30 14 C30.495 16.475 30.495 16.475 31 19 C29.35 19.66 27.7 20.32 26 21 C26 21.99 26 22.98 26 24 C15.605 25.98 15.605 25.98 5 28 C4.505 30.475 4.505 30.475 4 33 C5.010625 33.144375 6.02125 33.28875 7.0625 33.4375 C8.361875 33.623125 9.66125 33.80875 11 34 C12.27875 34.165 13.5575 34.33 14.875 34.5 C18 35 18 35 19 36 C20.155 36.144375 21.31 36.28875 22.5 36.4375 C24.2325 36.7159375 24.2325 36.7159375 26 37 C26.33 37.66 26.66 38.32 27 39 C2.91 39 -21.18 39 -46 39 C-47.8 26.4 -47.8 26.4 -46 21 C-32.14 21 -18.28 21 -4 21 C-4 24.63 -4 28.26 -4 32 C-3.34 32 -2.68 32 -2 32 C-2.01160156 30.92878906 -2.02320313 29.85757813 -2.03515625 28.75390625 C-2.04453299 27.35677257 -2.05363331 25.95963701 -2.0625 24.5625 C-2.07087891 23.85544922 -2.07925781 23.14839844 -2.08789062 22.41992188 C-2.09653588 20.61306441 -2.05220011 18.80612397 -2 17 C-1.505 16.505 -1.505 16.505 -1 16 C-0.76518307 13.81707226 -0.58636677 11.62796826 -0.4375 9.4375 C-0.293125 7.313125 -0.14875 5.18875 0 3 C12.87 3.495 12.87 3.495 26 4 C26 3.01 26 2.02 26 1 C17.42 1 8.84 1 0 1 C0 0.67 0 0.34 0 0 Z " fill="#24262C" transform="translate(119,122)"/>
<path d="M0 0 C26.07 0 52.14 0 79 0 C79 5.94 79 11.88 79 18 C52.6 18 26.2 18 -1 18 C-1 6 -1 6 0 0 Z " fill="#23262A" transform="translate(233,122)"/>
<path d="M0 0 C22.77 0 45.54 0 69 0 C68.67 6.6 68.34 13.2 68 20 C45.56 20 23.12 20 0 20 C0 13.4 0 6.8 0 0 Z " fill="#DDD7CF" transform="translate(0,141)"/>
<path d="M0 0 C8.58 0 17.16 0 26 0 C26 2.97 26 5.94 26 9 C26.33 7.68 26.66 6.36 27 5 C27.66 5 28.32 5 29 5 C29 4.01 29 3.02 29 2 C31.29160319 1.97307516 33.58329546 1.95363876 35.875 1.9375 C37.15117187 1.92589844 38.42734375 1.91429687 39.7421875 1.90234375 C43 2 43 2 45 3 C45 2.34 45 1.68 45 1 C40.05 1 35.1 1 30 1 C30 0.67 30 0.34 30 0 C43.2 0 56.4 0 70 0 C70 6.93 70 13.86 70 21 C46.24 21 22.48 21 -2 21 C-2 20.01 -2 19.02 -2 18 C1.94689044 15.47483892 6.20300504 15.32821355 10.75 14.875 C11.5234375 14.78863281 12.296875 14.70226562 13.09375 14.61328125 C18.08940851 14.08521668 22.97740886 13.91973028 28 14 C28 12.68 28 11.36 28 10 C26.68 10.33 25.36 10.66 24 11 C24 10.34 24 9.68 24 9 C22.7625 9.0928125 22.7625 9.0928125 21.5 9.1875 C17.81209865 8.98993386 15.38294611 8.11142109 12.0234375 6.71484375 C9.75392942 5.82232895 9.75392942 5.82232895 6.1875 5.625 C5.135625 5.41875 4.08375 5.2125 3 5 C2.01 3.35 1.02 1.7 0 0 Z " fill="#3F3C3A" transform="translate(159,140)"/>
<path d="M0 0 C2.31 0 4.62 0 7 0 C12.92482916 12.30068337 12.92482916 12.30068337 11 20 C10.34 20 9.68 20 9 20 C9 22.31 9 24.62 9 27 C10.32 27.33 11.64 27.66 13 28 C13 28.66 13 29.32 13 30 C13.99 29.938125 14.98 29.87625 16 29.8125 C19.6992201 29.80508673 22.41755449 30.79674165 25.80078125 32.19921875 C29.74555067 33.63559128 33.8740435 34.28133954 38 35 C38 36.32 38 37.64 38 39 C33.81042777 39.53565307 29.62150975 40.04965619 25.421875 40.5 C24.65359375 40.5825 23.8853125 40.665 23.09375 40.75 C21.51579992 40.91831468 19.93766985 41.08494956 18.359375 41.25 C17.59625 41.3325 16.833125 41.415 16.046875 41.5 C15.02352051 41.60828125 15.02352051 41.60828125 13.97949219 41.71875 C11.93708384 42.00893925 9.99125482 42.46573375 8 43 C8 43.99 8 44.98 8 46 C6.18757948 46.02687279 4.37504767 46.04633715 2.5625 46.0625 C1.55316406 46.07410156 0.54382813 46.08570313 -0.49609375 46.09765625 C-3 46 -3 46 -4 45 C-5.155 44.835 -6.31 44.67 -7.5 44.5 C-11 44 -11 44 -12 43 C-14.3452769 42.44049636 -16.70155796 41.92670421 -19.0625 41.4375 C-20.35285156 41.16808594 -21.64320312 40.89867187 -22.97265625 40.62109375 C-23.97167969 40.41613281 -24.97070312 40.21117187 -26 40 C-26 38.35 -26 36.7 -26 35 C-18.7009597 32.37983169 -11.76625333 30.66952113 -4 31 C-4 30.01 -4 29.02 -4 28 C-2.68 27.34 -1.36 26.68 0 26 C0 24.35 0 22.7 0 21 C-0.66 21 -1.32 21 -2 21 C-4.97860436 15.04279128 -2.60869748 7.80978817 -0.65625 1.87109375 C-0.4396875 1.25363281 -0.223125 0.63617188 0 0 Z " fill="#070504" transform="translate(149,115)"/>
<path d="M0 0 C2 2 2 2 3 5 C3.66 4.34 4.32 3.68 5 3 C5.495 4.98 5.495 4.98 6 7 C9.465 5.515 9.465 5.515 13 4 C13 5.98 13 7.96 13 10 C13.66 9.34 14.32 8.68 15 8 C15 7.67 15 7.34 15 7 C18.465 6.505 18.465 6.505 22 6 C21.67 7.32 21.34 8.64 21 10 C20.01 10 19.02 10 18 10 C18 11.32 18 12.64 18 14 C15 15 15 15 12 14 C9.87183587 14.15688424 9.87183587 14.15688424 8 15 C6.66666667 18 6.66666667 18 8 21 C8.66 21.33 9.32 21.66 10 22 C10 21.34 10 20.68 10 20 C12.97 20 15.94 20 19 20 C19 20.66 19 21.32 19 22 C21.31 22 23.62 22 26 22 C26.495 23.485 26.495 23.485 27 25 C28.485 25.495 28.485 25.495 30 26 C30 26.33 30 26.66 30 27 C6.35667334 28.43759641 -17.32481799 28.09551184 -41 28 C-41.38133299 26.0085944 -41.71325582 24.00720923 -42 22 C-41 21 -41 21 -38.4375 20.9375 C-37.2309375 20.9684375 -37.2309375 20.9684375 -36 21 C-35.67 20.01 -35.34 19.02 -35 18 C-35 18.99 -35 19.98 -35 21 C-34.34 20.67 -33.68 20.34 -33 20 C-32.67 19.01 -32.34 18.02 -32 17 C-29.9375 16.3125 -29.9375 16.3125 -28 16 C-28 15.34 -28 14.68 -28 14 C-27.34 14 -26.68 14 -26 14 C-26 14.66 -26 15.32 -26 16 C-25.01 16.33 -24.02 16.66 -23 17 C-22.67 17.66 -22.34 18.32 -22 19 C-21.67 18.34 -21.34 17.68 -21 17 C-20.34 17.33 -19.68 17.66 -19 18 C-18.34 18 -17.68 18 -17 18 C-17 18.66 -17 19.32 -17 20 C-16.01 19.67 -15.02 19.34 -14 19 C-14 19.66 -14 20.32 -14 21 C-12.02 21 -10.04 21 -8 21 C-8 19.35 -8 17.7 -8 16 C-7.34 16 -6.68 16 -6 16 C-5.505 18.475 -5.505 18.475 -5 21 C-3.43750191 19.68798827 -3.43750191 19.68798827 -2 18 C-2 17.01 -2 16.02 -2 15 C-5.3 15 -8.6 15 -12 15 C-12 14.34 -12 13.68 -12 13 C-10.02 13 -8.04 13 -6 13 C-9.00419641 11.9986012 -11.87709365 11.48578543 -15 11 C-14.360625 10.896875 -13.72125 10.79375 -13.0625 10.6875 C-12.381875 10.460625 -11.70125 10.23375 -11 10 C-10.67 9.01 -10.34 8.02 -10 7 C-9.01 7.33 -8.02 7.66 -7 8 C-7.99 6.68 -8.98 5.36 -10 4 C-9.67 3.34 -9.34 2.68 -9 2 C-7.02 3.32 -5.04 4.64 -3 6 C-2.67 5.01 -2.34 4.02 -2 3 C-2 3.66 -2 4.32 -2 5 C-1.34 5 -0.68 5 0 5 C0 3.35 0 1.7 0 0 Z " fill="#463222" transform="translate(162,62)"/>
<path d="M0 0 C13.86 0 27.72 0 42 0 C42 5.94 42 11.88 42 18 C28.14 18 14.28 18 0 18 C-1.8 5.4 -1.8 5.4 0 0 Z " fill="#D8D3CB" transform="translate(73,143)"/>
<path d="M0 0 C12.87 0 25.74 0 39 0 C39.64774951 3.88649705 40.13802817 6.98873237 40.125 10.8125 C40.12886719 11.96685547 40.12886719 11.96685547 40.1328125 13.14453125 C40 15 40 15 39 16 C36.04294679 16.08868299 33.10934944 16.11520296 30.15234375 16.09765625 C28.82270348 16.09553383 28.82270348 16.09553383 27.46620178 16.09336853 C24.62326746 16.08775215 21.78041069 16.07519691 18.9375 16.0625 C17.01497509 16.05748711 15.09244896 16.05292384 13.16992188 16.04882812 C8.44658451 16.03777741 3.72330542 16.02050183 -1 16 C-0.34 15.67 0.32 15.34 1 15 C0.67 14.34 0.34 13.68 0 13 C0 8.71 0 4.42 0 0 Z " fill="#24262B" transform="translate(190,124)"/>
<path d="M0 0 C0.66 0 1.32 0 2 0 C2.66 0.66 3.32 1.32 4 2 C4 1.34 4 0.68 4 0 C7.47611041 0.29795232 8.77330757 0.76701055 11.25 3.3125 C18.35011528 10.25124902 28.87747726 12.05791603 38.4375 13.125 C39.16904297 13.21136719 39.90058594 13.29773438 40.65429688 13.38671875 C42.43560094 13.59628393 44.21772281 13.79887868 46 14 C46 14.99 46 15.98 46 17 C15.84938354 12.23292236 15.84938354 12.23292236 8 7 C12.50096574 11.50096574 19.81024071 12.92687711 25.8125 14.125 C26.59351074 14.28967773 27.37452148 14.45435547 28.17919922 14.62402344 C34.09841673 15.85897689 40.03611314 17.00164009 46 18 C45.505 20.475 45.505 20.475 45 23 C44.34 23 43.68 23 43 23 C43 21.68 43 20.36 43 19 C42.20980469 18.98582031 41.41960937 18.97164062 40.60546875 18.95703125 C14.86873508 17.86873508 14.86873508 17.86873508 9 12 C9.08378906 13.13179687 9.16757813 14.26359375 9.25390625 15.4296875 C9.35706608 16.91143781 9.45991453 18.39320982 9.5625 19.875 C9.61857422 20.62136719 9.67464844 21.36773437 9.73242188 22.13671875 C10.11328125 27.7734375 10.11328125 27.7734375 9 30 C9.66 30 10.32 30 11 30 C11 31.32 11 32.64 11 34 C10.34 34 9.68 34 9 34 C9 34.99 9 35.98 9 37 C20.22 37 31.44 37 43 37 C43 37.66 43 38.32 43 39 C43.99 39.33 44.98 39.66 46 40 C34.78 40 23.56 40 12 40 C12 44.62 12 49.24 12 54 C11.01 54.99 10.02 55.98 9 57 C8.01 56.67 7.02 56.34 6 56 C6.03480469 55.1332666 6.06960937 54.2665332 6.10546875 53.37353516 C6.3405056 42.74511287 4.90791839 32.80879532 3 22.375 C2.56811649 19.9600272 2.13992882 17.54447543 1.71606445 15.12808228 C1.45429125 13.64127621 1.18750135 12.15534133 0.91479492 10.67050171 C0.27099724 7.06921797 -0.14934868 3.6599316 0 0 Z " fill="#040A14" transform="translate(63,80)"/>
<path d="M0 0 C13.53 0 27.06 0 41 0 C41 4.62 41 9.24 41 14 C27.8 14 14.6 14 1 14 C0.67 9.38 0.34 4.76 0 0 Z " fill="#D7D1C8" transform="translate(188,147)"/>
<path d="M0 0 C0.99 0.33 1.98 0.66 3 1 C2.566875 2.08667969 2.566875 2.08667969 2.125 3.1953125 C-0.70093126 10.36888992 -0.70093126 10.36888992 -1 18 C-1.99 18 -2.98 18 -4 18 C-4 19.32 -4 20.64 -4 22 C-12.91 22 -21.82 22 -31 22 C-31 21.67 -31 21.34 -31 21 C-29.02 20.67 -27.04 20.34 -25 20 C-25.77730469 19.94714844 -26.55460938 19.89429687 -27.35546875 19.83984375 C-30 19 -30 19 -31.36328125 16.56640625 C-31.67652344 15.57511719 -31.98976562 14.58382812 -32.3125 13.5625 C-32.80169922 12.07943359 -32.80169922 12.07943359 -33.30078125 10.56640625 C-34 8 -34 8 -34 6 C-32.42025391 5.96132812 -32.42025391 5.96132812 -30.80859375 5.921875 C-20.40664652 5.55310626 -9.48138765 4.74069382 0 0 Z " fill="#769BB6" transform="translate(233,96)"/>
<path d="M0 0 C2.20192224 3.30288336 2.23959968 4.27462727 2.1953125 8.10546875 C2.19031738 8.99129639 2.18532227 9.87712402 2.18017578 10.78979492 C2.15286377 12.47165894 2.15286377 12.47165894 2.125 14.1875 C2.063125 19.5396875 2.063125 19.5396875 2 25 C-10.375 25.495 -10.375 25.495 -23 26 C-22.67 26.66 -22.34 27.32 -22 28 C-23.32 27.67 -24.64 27.34 -26 27 C-25.67 24.69 -25.34 22.38 -25 20 C-24.34 20 -23.68 20 -23 20 C-22.979375 18.783125 -22.95875 17.56625 -22.9375 16.3125 C-22.92589844 15.62800781 -22.91429687 14.94351563 -22.90234375 14.23828125 C-22.96381303 11.51712168 -22.96381303 11.51712168 -24 7 C-15.75 7 -7.5 7 1 7 C1 6.34 1 5.68 1 5 C-0.175625 4.814375 -0.175625 4.814375 -1.375 4.625 C-4 4 -4 4 -6 2 C-3 0 -3 0 0 0 Z " fill="#212529" transform="translate(183,115)"/>
<path d="M0 0 C2.64 0 5.28 0 8 0 C8 2.64 8 5.28 8 8 C10.85160391 8.81434143 13.36626131 9.11881242 16.328125 9.09765625 C17.12734375 9.09443359 17.9265625 9.09121094 18.75 9.08789062 C19.575 9.07951172 20.4 9.07113281 21.25 9.0625 C22.09046875 9.05798828 22.9309375 9.05347656 23.796875 9.04882812 C25.86461401 9.03707961 27.93231624 9.01914522 30 9 C29.34 9.99 28.68 10.98 28 12 C26.01635742 12.32470703 26.01635742 12.32470703 23.60546875 12.2578125 C22.73212891 12.24363281 21.85878906 12.22945312 20.95898438 12.21484375 C20.04439453 12.18519531 19.12980469 12.15554687 18.1875 12.125 C10.52925821 11.81468577 10.52925821 11.81468577 3 13 C3.33 13.66 3.66 14.32 4 15 C4.99 15.33 5.98 15.66 7 16 C7 16.66 7 17.32 7 18 C7.804375 18.2475 8.60875 18.495 9.4375 18.75 C12 20 12 20 12.8125 22.125 C12.874375 22.74375 12.93625 23.3625 13 24 C14.32 24 15.64 24 17 24 C17.99 24 18.98 24 20 24 C20 25.98 20 27.96 20 30 C25.28 30 30.56 30 36 30 C36 29.01 36 28.02 36 27 C37.32 26.34 38.64 25.68 40 25 C39.505 27.475 39.505 27.475 39 30 C41.62187494 28.95125002 42.79371361 28.35068687 44.25 25.875 C44.4975 25.25625 44.745 24.6375 45 24 C47.31 24 49.62 24 52 24 C52.33 23.34 52.66 22.68 53 22 C53.99 21.67 54.98 21.34 56 21 C56 19.68 56 18.36 56 17 C58.64738916 15.5393715 59.89448334 15 63 15 C62.505 17.475 62.505 17.475 62 20 C61.34 20 60.68 20 60 20 C59.505 21.485 59.505 21.485 59 23 C48.44479146 30.90097482 37.49922582 33.19801768 24.5625 33.0625 C23.73556641 33.05798828 22.90863281 33.05347656 22.05664062 33.04882812 C20.03772854 33.03715811 18.01885426 33.01922718 16 33 C15.51080078 32.07767578 15.51080078 32.07767578 15.01171875 31.13671875 C14.57472656 30.32847656 14.13773438 29.52023438 13.6875 28.6875 C13.25824219 27.88699219 12.82898438 27.08648437 12.38671875 26.26171875 C11.0686728 24.11200436 9.96417336 22.57133869 8 21 C4.38976901 20.26958147 4.38976901 20.26958147 1 20 C1 19.34 1 18.68 1 18 C-1.97 18 -4.94 18 -8 18 C-8 18.66 -8 19.32 -8 20 C-8.99 19.67 -9.98 19.34 -11 19 C-11.6875 16.6875 -11.6875 16.6875 -12 14 C-10.9375 12.1875 -10.9375 12.1875 -9 11 C-5.56797729 10.71399811 -3.27570125 10.90809958 0 12 C0 10.68 0 9.36 0 8 C0.99 8 1.98 8 3 8 C3.33 6.68 3.66 5.36 4 4 C3.34 4.66 2.68 5.32 2 6 C2 6.33 2 6.66 2 7 C-0.31 7.33 -2.62 7.66 -5 8 C-4.67 5.69 -4.34 3.38 -4 1 C-2.68 1.33 -1.36 1.66 0 2 C0 1.34 0 0.68 0 0 Z M8 3 C8.99 3.495 8.99 3.495 10 4 C9.01 4.495 9.01 4.495 8 5 C8 4.34 8 3.68 8 3 Z " fill="#81A6BC" transform="translate(180,64)"/>
<path d="M0 0 C0.495 0.99 0.495 0.99 1 2 C1.99 1.938125 2.98 1.87625 4 1.8125 C7.6992201 1.80508673 10.41755449 2.79674165 13.80078125 4.19921875 C17.74555067 5.63559128 21.8740435 6.28133954 26 7 C26 8.32 26 9.64 26 11 C21.81042777 11.53565307 17.62150975 12.04965619 13.421875 12.5 C12.26945312 12.62375 12.26945312 12.62375 11.09375 12.75 C9.51579992 12.91831468 7.93766985 13.08494956 6.359375 13.25 C5.59625 13.3325 4.833125 13.415 4.046875 13.5 C3.02352051 13.60828125 3.02352051 13.60828125 1.97949219 13.71875 C-0.06291616 14.00893925 -2.00874518 14.46573375 -4 15 C-4 15.99 -4 16.98 -4 18 C-5.81242052 18.02687279 -7.62495233 18.04633715 -9.4375 18.0625 C-10.44683594 18.07410156 -11.45617187 18.08570313 -12.49609375 18.09765625 C-15 18 -15 18 -16 17 C-17.155 16.835 -18.31 16.67 -19.5 16.5 C-23 16 -23 16 -24 15 C-26.3452769 14.44049636 -28.70155796 13.92670421 -31.0625 13.4375 C-32.35285156 13.16808594 -33.64320312 12.89867187 -34.97265625 12.62109375 C-35.97167969 12.41613281 -36.97070312 12.21117187 -38 12 C-38 10.35 -38 8.7 -38 7 C-31.71428571 4.57142857 -31.71428571 4.57142857 -28 6 C-28.33 6.33 -28.66 6.66 -29 7 C-24.05 7.33 -19.1 7.66 -14 8 C-14 8.66 -14 9.32 -14 10 C-17.63 10 -21.26 10 -25 10 C-25 10.66 -25 11.32 -25 12 C-17.98441385 12.5988915 -11.04321257 13.13810221 -4 13 C-3.40929986 11.05396726 -3.40929986 11.05396726 -3 9 C-3.495 8.505 -3.495 8.505 -4 8 C-3.71269945 5.66055264 -3.38063221 3.3260857 -3 1 C-2.01 0.67 -1.02 0.34 0 0 Z " fill="#1C1B1B" transform="translate(161,143)"/>
<path d="M0 0 C1.875 0.25 1.875 0.25 4 1 C5.125 2.8125 5.125 2.8125 6 5 C6.37125 5.7425 6.7425 6.485 7.125 7.25 C7.41375 7.8275 7.7025 8.405 8 9 C5.525 8.01 5.525 8.01 3 7 C2.67 7.66 2.34 8.32 2 9 C4.475 9.495 4.475 9.495 7 10 C7 10.66 7 11.32 7 12 C5.02 12 3.04 12 1 12 C1 12.66 1 13.32 1 14 C1.66 13.67 2.32 13.34 3 13 C5.6723621 12.86584528 8.32250488 12.95681459 11 13 C11.495 14.98 11.495 14.98 12 17 C11.01 17.33 10.02 17.66 9 18 C8.505 19.485 8.505 19.485 8 21 C7 20 7 20 6.9375 17.4375 C6.958125 16.633125 6.97875 15.82875 7 15 C6.34 15 5.68 15 5 15 C5 16.65 5 18.3 5 20 C0.95815207 20.18372036 -1.4568192 19.89813257 -5 18 C-5.66 18.33 -6.32 18.66 -7 19 C-7.33 18.01 -7.66 17.02 -8 16 C-8.33 16.99 -8.66 17.98 -9 19 C-10.37562854 17.71034824 -11.70766393 16.37310707 -13 15 C-13 14.34 -13 13.68 -13 13 C-14.98 13.33 -16.96 13.66 -19 14 C-19 13.34 -19 12.68 -19 12 C-20.3921875 12.061875 -20.3921875 12.061875 -21.8125 12.125 C-25 12 -25 12 -28 10 C-29.03125 9.67 -30.0625 9.34 -31.125 9 C-34 8 -34 8 -35 6 C-33.00007582 5.85313057 -31.00005383 5.70759319 -29 5.5625 C-27.73285156 5.4696875 -26.46570313 5.376875 -25.16015625 5.28125 C-22.33562431 5.08214034 -19.51175982 4.91911592 -16.68359375 4.78125 C-15.97525391 4.74443115 -15.26691406 4.7076123 -14.53710938 4.66967773 C-12.52372771 4.56690162 -10.50991331 4.47271152 -8.49609375 4.37890625 C-5.26348963 4.02855698 -2.91837777 3.38356873 0 2 C0 1.34 0 0.68 0 0 Z " fill="#90B3CB" transform="translate(149,63)"/>
<path d="M0 0 C2 2 2 2 3 5 C3.66 4.34 4.32 3.68 5 3 C5.33 4.32 5.66 5.64 6 7 C8.31 6.01 10.62 5.02 13 4 C13 5.98 13 7.96 13 10 C13.66 9.34 14.32 8.68 15 8 C15 7.67 15 7.34 15 7 C18.465 6.505 18.465 6.505 22 6 C21.67 7.32 21.34 8.64 21 10 C20.01 10 19.02 10 18 10 C18 11.32 18 12.64 18 14 C15 15 15 15 12 14 C9.87183587 14.15688424 9.87183587 14.15688424 8 15 C6.66666667 18 6.66666667 18 8 21 C8.66 21.33 9.32 21.66 10 22 C10 21.34 10 20.68 10 20 C12.64 20 15.28 20 18 20 C18 20.99 18 21.98 18 23 C20.31 23.33 22.62 23.66 25 24 C25 24.33 25 24.66 25 25 C21.00204108 25.95619733 17.29196078 26.1039592 13.1875 26.0625 C12.02605469 26.05347656 10.86460937 26.04445313 9.66796875 26.03515625 C8.78753906 26.02355469 7.90710938 26.01195313 7 26 C8.32 25.34 9.64 24.68 11 24 C9.02 24 7.04 24 5 24 C5 23.34 5 22.68 5 22 C4.01 22 3.02 22 2 22 C2.66 22.99 3.32 23.98 4 25 C3 26 3 26 -0.5625 26.0625 C-1.696875 26.041875 -2.83125 26.02125 -4 26 C-4 25.01 -4 24.02 -4 23 C-3.34 22.67 -2.68 22.34 -2 22 C-2 19.69 -2 17.38 -2 15 C-5.3 15 -8.6 15 -12 15 C-12 14.34 -12 13.68 -12 13 C-10.02 13 -8.04 13 -6 13 C-9.00419641 11.9986012 -11.87709365 11.48578543 -15 11 C-14.360625 10.896875 -13.72125 10.79375 -13.0625 10.6875 C-12.0415625 10.3471875 -12.0415625 10.3471875 -11 10 C-10.67 9.01 -10.34 8.02 -10 7 C-9.01 7.33 -8.02 7.66 -7 8 C-7.99 6.68 -8.98 5.36 -10 4 C-9.67 3.34 -9.34 2.68 -9 2 C-7.02 3.32 -5.04 4.64 -3 6 C-2.67 5.01 -2.34 4.02 -2 3 C-2 3.66 -2 4.32 -2 5 C-1.34 5 -0.68 5 0 5 C0 3.35 0 1.7 0 0 Z " fill="#1E241A" transform="translate(162,62)"/>
<path d="M0 0 C-0.85312495 3.63266109 -1.95721644 7.17246968 -3.06640625 10.734375 C-3.26475571 11.37240051 -3.46310516 12.01042603 -3.66746521 12.66778564 C-4.29810622 14.69551492 -4.93028079 16.72276229 -5.5625 18.75 C-5.99163792 20.12887468 -6.42067549 21.50778059 -6.84960938 22.88671875 C-7.89857761 26.25817504 -8.94892128 29.62920099 -10 33 C-8.84951172 33.23009766 -8.84951172 33.23009766 -7.67578125 33.46484375 C-6.79277344 33.64144531 -5.90976563 33.81804687 -5 34 C-3.6078125 34.2784375 -3.6078125 34.2784375 -2.1875 34.5625 C-1.465625 34.706875 -0.74375 34.85125 0 35 C0.33 35.99 0.66 36.98 1 38 C-3.29 38 -7.58 38 -12 38 C-12.33 37.34 -12.66 36.68 -13 36 C-13.99 36.495 -13.99 36.495 -15 37 C-15 35.35 -15 33.7 -15 32 C-14.34 32 -13.68 32 -13 32 C-13.2475 31.236875 -13.495 30.47375 -13.75 29.6875 C-14.11760019 24.26539714 -12.05369351 19.953544 -10 15 C-10.61746094 15.19335938 -11.23492187 15.38671875 -11.87109375 15.5859375 C-14.57351298 16.4168183 -17.28520066 17.21059026 -20 18 C-20.67160156 18.21269531 -21.34320313 18.42539063 -22.03515625 18.64453125 C-30.11150169 20.87636428 -38.6997883 20.16116916 -47 20 C-47 19.34 -47 18.68 -47 18 C-45.74703125 17.93941406 -44.4940625 17.87882812 -43.203125 17.81640625 C-41.55207276 17.73197744 -39.90103165 17.64733061 -38.25 17.5625 C-37.425 17.52318359 -36.6 17.48386719 -35.75 17.44335938 C-34.95078125 17.40146484 -34.1515625 17.35957031 -33.328125 17.31640625 C-32.22839355 17.26141968 -32.22839355 17.26141968 -31.10644531 17.20532227 C-28.98822395 16.99885215 -27.0480544 16.56867914 -25 16 C-26.794375 16.2475 -26.794375 16.2475 -28.625 16.5 C-35.07041997 17.23219971 -41.52295265 17.08292095 -48 17 C-48 16.34 -48 15.68 -48 15 C-46.88882813 14.95101562 -45.77765625 14.90203125 -44.6328125 14.8515625 C-29.10033631 14.1050946 -11.51582182 0 0 0 Z " fill="#060E17" transform="translate(245,82)"/>
<path d="M0 0 C9.9 0 19.8 0 30 0 C30 0.66 30 1.32 30 2 C28.68 2.33 27.36 2.66 26 3 C26 3.99 26 4.98 26 6 C19.07 7.32 12.14 8.64 5 10 C4.67 11.65 4.34 13.3 4 15 C5.010625 15.144375 6.02125 15.28875 7.0625 15.4375 C8.361875 15.623125 9.66125 15.80875 11 16 C12.27875 16.165 13.5575 16.33 14.875 16.5 C18 17 18 17 19 18 C20.155 18.144375 21.31 18.28875 22.5 18.4375 C23.655 18.623125 24.81 18.80875 26 19 C26.33 19.66 26.66 20.32 27 21 C18.09 21 9.18 21 0 21 C0 14.07 0 7.14 0 0 Z " fill="#D3D1CC" transform="translate(119,140)"/>
<path d="M0 0 C2.31 0 4.62 0 7 0 C7 0.66 7 1.32 7 2 C14.59 2 22.18 2 30 2 C30 2.66 30 3.32 30 4 C29.34 4 28.68 4 28 4 C28.061875 4.928125 28.12375 5.85625 28.1875 6.8125 C28 10 28 10 26.87573242 11.69458008 C24.13252756 13.60371927 22.10717523 13.24497149 18.80078125 13.07421875 C17.59228516 13.01943359 16.38378906 12.96464844 15.13867188 12.90820312 C13.2447168 12.79895508 13.2447168 12.79895508 11.3125 12.6875 C10.03826172 12.62626953 8.76402344 12.56503906 7.45117188 12.50195312 C4.29981484 12.34851627 1.14989608 12.1806358 -2 12 C-2 10.35 -2 8.7 -2 7 C-2.66 7 -3.32 7 -4 7 C-4 6.01 -4 5.02 -4 4 C-3.01 3.67 -2.02 3.34 -1 3 C-0.67 2.01 -0.34 1.02 0 0 Z " fill="#383C3E" transform="translate(121,110)"/>
<path d="M0 0 C0.70382813 0.32613281 1.40765625 0.65226562 2.1328125 0.98828125 C13.99553492 6.23823282 26.22512329 8.19623834 39 10 C39.66 8.68 40.32 7.36 41 6 C42.35439668 8.70879335 42.06501451 11.00933268 42 14 C41.34 14 40.68 14 40 14 C39.67 16.31 39.34 18.62 39 21 C39.99 20.67 40.98 20.34 42 20 C41.67 21.98 41.34 23.96 41 26 C39.68 25.67 38.36 25.34 37 25 C36.855625 25.804375 36.71125 26.60875 36.5625 27.4375 C36 30 36 30 35 31 C32.55169574 31.08843793 30.13179401 31.11528752 27.68359375 31.09765625 C26.95253922 31.0962413 26.22148468 31.09482635 25.46827698 31.09336853 C23.12464368 31.08775408 20.78110461 31.07519922 18.4375 31.0625 C16.85221492 31.05748686 15.26692834 31.05292363 13.68164062 31.04882812 C9.7877239 31.03777997 5.89387795 31.02050572 2 31 C2 30.01 2 29.02 2 28 C2.66 28 3.32 28 4 28 C4 27.01 4 26.02 4 25 C5.70542969 25.2165625 5.70542969 25.2165625 7.4453125 25.4375 C17.03329553 26.60656292 26.32830058 27.27988841 36 27 C35.649375 25.989375 35.29875 24.97875 34.9375 23.9375 C33.8107552 20.07662622 34.19468283 16.94605414 35 13 C35.495 14.98 35.495 14.98 36 17 C36.66 17 37.32 17 38 17 C38.33 15.35 38.66 13.7 39 12 C37.91203125 11.89042969 36.8240625 11.78085938 35.703125 11.66796875 C22.86493342 10.31218302 11.41869364 8.39143692 0 2 C0 1.34 0 0.68 0 0 Z " fill="#53585B" transform="translate(70,86)"/>
<path d="M0 0 C2.64 0.99 5.28 1.98 8 3 C7.01 3.33 6.02 3.66 5 4 C4.87530901 9.57830016 4.87530901 9.57830016 6 15 C0.08968435 18.47990548 -7.23146856 17.61113084 -13.6875 16 C-14.780625 15.67 -15.87375 15.34 -17 15 C-17 14.34 -17 13.68 -17 13 C-13.37 13 -9.74 13 -6 13 C-6 12.34 -6 11.68 -6 11 C-11.28 11 -16.56 11 -22 11 C-20 7 -20 7 -17.8125 6.25 C-14.52802399 5.95804658 -11.2956714 5.93537899 -8 6 C-8 5.01 -8 4.02 -8 3 C-6.865625 2.690625 -5.73125 2.38125 -4.5625 2.0625 C-1.21224901 1.37075469 -1.21224901 1.37075469 0 0 Z " fill="#0C0A0B" transform="translate(153,140)"/>
<path d="M0 0 C0.33 0.66 0.66 1.32 1 2 C1.66 2 2.32 2 3 2 C3 3.98 3 5.96 3 8 C11.58 8 20.16 8 29 8 C29 8.99 29 9.98 29 11 C11.14350797 11.18451025 11.14350797 11.18451025 3 10 C3.01160156 10.92683594 3.02320312 11.85367188 3.03515625 12.80859375 C3.04417969 14.00613281 3.05320312 15.20367187 3.0625 16.4375 C3.07410156 17.63246094 3.08570312 18.82742187 3.09765625 20.05859375 C3 23 3 23 2 24 C1.76346477 26.52596259 1.57826308 29.03107207 1.4375 31.5625 C1.39431641 32.27341797 1.35113281 32.98433594 1.30664062 33.71679688 C1.20028223 35.47761912 1.09961154 37.2387832 1 39 C0.34 39 -0.32 39 -1 39 C-1 35.37 -1 31.74 -1 28 C-7.93 28 -14.86 28 -22 28 C-22 27.67 -22 27.34 -22 27 C-15.07 27 -8.14 27 -1 27 C-1 26.34 -1 25.68 -1 25 C-7.27 25 -13.54 25 -20 25 C-20 24.34 -20 23.68 -20 23 C-18.78441406 23.01160156 -17.56882812 23.02320313 -16.31640625 23.03515625 C-14.73177236 23.04453278 -13.14713682 23.05363313 -11.5625 23.0625 C-10.35883789 23.07506836 -10.35883789 23.07506836 -9.13085938 23.08789062 C-7.08704779 23.0965143 -5.04316098 23.0522815 -3 23 C-1.57270637 21.80663174 -1.57270637 21.80663174 -1.97265625 18.359375 C-2.01080732 16.05023149 -2.06271815 13.74215965 -2.12695312 11.43359375 C-2.18997639 7.1405975 -1.99928773 3.92017203 0 0 Z " fill="#0F0C0A" transform="translate(116,115)"/>
<path d="M0 0 C26.07 0 52.14 0 79 0 C79 1.32 79 2.64 79 4 C4.625 4 4.625 4 0 2 C0 1.34 0 0.68 0 0 Z " fill="#152532" transform="translate(233,122)"/>
<path d="M0 0 C2.65575614 3.13862089 3.77207194 6.10266311 5 10 C8.68778194 9.69077186 12.37516656 9.37702753 16.0625 9.0625 C17.10083984 8.97548828 18.13917969 8.88847656 19.20898438 8.79882812 C24.50327607 8.34503169 29.75044051 7.82652639 35 7 C30.39018177 11.60981823 23.07834317 11.10827769 16.93359375 11.13623047 C13.28811982 11.11982869 9.64484549 11.0707737 6 11 C6.3609375 11.83144531 6.721875 12.66289063 7.09375 13.51953125 C7.5578125 14.60621094 8.021875 15.69289063 8.5 16.8125 C8.9640625 17.89144531 9.428125 18.97039062 9.90625 20.08203125 C11 23 11 23 11 26 C16.28 26.33 21.56 26.66 27 27 C27 27.33 27 27.66 27 28 C30.3 28.33 33.6 28.66 37 29 C37.33 27.68 37.66 26.36 38 25 C38 26.65 38 28.3 38 30 C37.10692139 30.02505615 36.21384277 30.0501123 35.29370117 30.07592773 C31.97814546 30.17110186 28.66276271 30.27033283 25.34741211 30.37231445 C23.91288997 30.41560793 22.47831816 30.45728699 21.04370117 30.49731445 C18.9808048 30.55515267 16.91815717 30.61880753 14.85546875 30.68359375 C12.99378052 30.73858032 12.99378052 30.73858032 11.09448242 30.79467773 C7.96446653 30.87144121 7.96446653 30.87144121 5 32 C5 31.34 5 30.68 5 30 C2.69 29.67 0.38 29.34 -2 29 C-1.34 28.67 -0.68 28.34 0 28 C0.309375 27.21625 0.61875 26.4325 0.9375 25.625 C2 23 2 23 3.5859375 21.69140625 C5.27855769 20.0220286 5.27855769 20.0220286 5.07421875 17.30078125 C4.94660156 16.31464844 4.81898438 15.32851562 4.6875 14.3125 C4.56761719 13.31863281 4.44773438 12.32476562 4.32421875 11.30078125 C4.21722656 10.54152344 4.11023438 9.78226563 4 9 C3.01 9 2.02 9 1 9 C0.67 6.03 0.34 3.06 0 0 Z " fill="#3D3736" transform="translate(192,89)"/>
<path d="M0 0 C0.66 0 1.32 0 2 0 C2.66 2.64 3.32 5.28 4 8 C15.22 8.33 26.44 8.66 38 9 C38 9.66 38 10.32 38 11 C38.99 11.33 39.98 11.66 41 12 C29.78 12 18.56 12 7 12 C7 16.62 7 21.24 7 26 C6.01 26.99 5.02 27.98 4 29 C3.01 28.67 2.02 28.34 1 28 C1.01160156 27.06800781 1.02320312 26.13601562 1.03515625 25.17578125 C1.09495359 16.727271 0.79517962 8.42038418 0 0 Z " fill="#030306" transform="translate(68,108)"/>
<path d="M0 0 C0.33 0 0.66 0 1 0 C1 1.65 1 3.3 1 5 C-22.1 5 -45.2 5 -69 5 C-69 4.01 -69 3.02 -69 2 C-46.23 2 -23.46 2 0 2 C0 1.34 0 0.68 0 0 Z " fill="#111C26" transform="translate(69,121)"/>
<path d="M0 0 C13.2 0 26.4 0 40 0 C40 1.98 40 3.96 40 6 C26.47 6 12.94 6 -1 6 C-1 4.68 -1 3.36 -1 2 C1.29160319 1.97307516 3.58329546 1.95363876 5.875 1.9375 C7.15117187 1.92589844 8.42734375 1.91429687 9.7421875 1.90234375 C13 2 13 2 15 3 C15 2.34 15 1.68 15 1 C10.05 1 5.1 1 0 1 C0 0.67 0 0.34 0 0 Z " fill="#B4AFA8" transform="translate(189,140)"/>
<path d="M0 0 C-0.33 1.65 -0.66 3.3 -1 5 C-1.66 5 -2.32 5 -3 5 C-3.33 5.99 -3.66 6.98 -4 8 C-14.55520854 15.90097482 -25.50077418 18.19801768 -38.4375 18.0625 C-39.26443359 18.05798828 -40.09136719 18.05347656 -40.94335938 18.04882812 C-42.96227146 18.03715811 -44.98114574 18.01922718 -47 18 C-47.33773437 17.36191406 -47.67546875 16.72382812 -48.0234375 16.06640625 C-48.46945313 15.24011719 -48.91546875 14.41382812 -49.375 13.5625 C-50.03628906 12.32693359 -50.03628906 12.32693359 -50.7109375 11.06640625 C-51.83418559 8.86533422 -51.83418559 8.86533422 -54 8 C-54 7.34 -54 6.68 -54 6 C-52.68 6.33 -51.36 6.66 -50 7 C-50 7.66 -50 8.32 -50 9 C-48.68 9 -47.36 9 -46 9 C-45.01 9 -44.02 9 -43 9 C-43 10.98 -43 12.96 -43 15 C-37.72 15 -32.44 15 -27 15 C-27 14.01 -27 13.02 -27 12 C-25.68 11.34 -24.36 10.68 -23 10 C-23.33 11.65 -23.66 13.3 -24 15 C-21.37812506 13.95125002 -20.20628639 13.35068687 -18.75 10.875 C-18.5025 10.25625 -18.255 9.6375 -18 9 C-15.69 9 -13.38 9 -11 9 C-10.67 8.34 -10.34 7.68 -10 7 C-9.01 6.67 -8.02 6.34 -7 6 C-7 4.68 -7 3.36 -7 2 C-4.35261084 0.5393715 -3.10551666 0 0 0 Z " fill="#7996AA" transform="translate(243,79)"/>
<path d="M0 0 C0.99 0.66 1.98 1.32 3 2 C5.27093154 2.25958807 5.27093154 2.25958807 7.8046875 2.16015625 C9.25391602 2.14287476 9.25391602 2.14287476 10.73242188 2.12524414 C11.76947266 2.10453857 12.80652344 2.08383301 13.875 2.0625 C22.96579913 1.95732061 31.97447287 2.12642211 41.04638672 2.73266602 C46.18973526 3.04317456 50.92138744 2.95509943 56 2 C56.33 1.34 56.66 0.68 57 0 C57.99 0.495 57.99 0.495 59 1 C59 1.66 59 2.32 59 3 C59.99 2.67 60.98 2.34 62 2 C62.33 1.34 62.66 0.68 63 0 C64.32 0 65.64 0 67 0 C67 1.65 67 3.3 67 5 C40.93 5 14.86 5 -12 5 C-12 4.34 -12 3.68 -12 3 C-6.06 2.505 -6.06 2.505 0 2 C0 1.34 0 0.68 0 0 Z " fill="#668196" transform="translate(245,117)"/>
<path d="M0 0 C0.66 0 1.32 0 2 0 C1.855625 0.68707031 1.71125 1.37414062 1.5625 2.08203125 C1.2840625 3.43361328 1.2840625 3.43361328 1 4.8125 C0.7215625 6.15248047 0.7215625 6.15248047 0.4375 7.51953125 C-0.08684843 10.07260693 -0.08684843 10.07260693 0 13 C-0.99 13 -1.98 13 -3 13 C-3 14.32 -3 15.64 -3 17 C-11.91 17 -20.82 17 -30 17 C-30 16.67 -30 16.34 -30 16 C-28.02 15.67 -26.04 15.34 -24 15 C-25.65 14.67 -27.3 14.34 -29 14 C-30.32 10.04 -31.64 6.08 -33 2 C-31.68 2 -30.36 2 -29 2 C-28.67 4.97 -28.34 7.94 -28 11 C-26.02 11 -24.04 11 -22 11 C-22 11.66 -22 12.32 -22 13 C-19.68690295 12.88658363 -17.37449815 12.75896193 -15.0625 12.625 C-13.77472656 12.55539063 -12.48695313 12.48578125 -11.16015625 12.4140625 C-10.11730469 12.27742188 -9.07445312 12.14078125 -8 12 C-7.67 11.34 -7.34 10.68 -7 10 C-7 10.66 -7 11.32 -7 12 C-3.5612305 9.707487 -3.81781902 9.68018558 -3 6 C-2.03112419 3.98473831 -1.0358679 1.98166034 0 0 Z " fill="#758FA1" transform="translate(232,101)"/>
<path d="M0 0 C-0.33 0.33 -0.66 0.66 -1 1 C3.95 1.33 8.9 1.66 14 2 C14 2.66 14 3.32 14 4 C10.37 4 6.74 4 3 4 C3 4.66 3 5.32 3 6 C4.19625 6.12375 5.3925 6.2475 6.625 6.375 C10.28367181 6.84289409 13.59813336 7.50649757 17 9 C17.33 9.99 17.66 10.98 18 12 C16.33388095 12.042721 14.66617115 12.04063832 13 12 C12.67 11.67 12.34 11.34 12 11 C10.845 10.835 9.69 10.67 8.5 10.5 C5 10 5 10 4 9 C1.6547231 8.44049636 -0.70155796 7.92670421 -3.0625 7.4375 C-4.35285156 7.16808594 -5.64320312 6.89867187 -6.97265625 6.62109375 C-8.47119141 6.31365234 -8.47119141 6.31365234 -10 6 C-10 4.35 -10 2.7 -10 1 C-3.71428571 -1.42857143 -3.71428571 -1.42857143 0 0 Z " fill="#363431" transform="translate(133,149)"/>
<path d="M0 0 C1.98 0 3.96 0 6 0 C6.45375 1.134375 6.9075 2.26875 7.375 3.4375 C8.57095806 7.04721692 8.57095806 7.04721692 11 8 C11 7.34 11 6.68 11 6 C13.64 6 16.28 6 19 6 C19 6.99 19 7.98 19 9 C21.31 9.33 23.62 9.66 26 10 C26 10.33 26 10.66 26 11 C22.00204108 11.95619733 18.29196078 12.1039592 14.1875 12.0625 C13.02605469 12.05347656 11.86460937 12.04445313 10.66796875 12.03515625 C9.78753906 12.02355469 8.90710938 12.01195313 8 12 C9.32 11.34 10.64 10.68 12 10 C10.02 10 8.04 10 6 10 C6 9.34 6 8.68 6 8 C5.01 8 4.02 8 3 8 C3.99 9.485 3.99 9.485 5 11 C4 12 4 12 0.4375 12.0625 C-0.696875 12.041875 -1.83125 12.02125 -3 12 C-3 11.01 -3 10.02 -3 9 C-2.34 8.67 -1.68 8.34 -1 8 C-0.53476937 6.10466658 -0.53476937 6.10466658 -0.375 3.9375 C-0.25125 2.638125 -0.1275 1.33875 0 0 Z " fill="#121E15" transform="translate(161,76)"/>
<path d="M0 0 C8.25 0 16.5 0 25 0 C25 2.64 25 5.28 25 8 C17.60177185 8.44389369 9.96380091 7.59262219 3 5 C2.01 3.35 1.02 1.7 0 0 Z " fill="#D4D1CD" transform="translate(159,140)"/>
<path d="M0 0 C-0.66 2.97 -1.32 5.94 -2 9 C-0.989375 9.144375 0.02125 9.28875 1.0625 9.4375 C2.361875 9.623125 3.66125 9.80875 5 10 C6.27875 10.165 7.5575 10.33 8.875 10.5 C12 11 12 11 13 12 C14.155 12.144375 15.31 12.28875 16.5 12.4375 C17.655 12.623125 18.81 12.80875 20 13 C20.33 13.66 20.66 14.32 21 15 C12.09 15 3.18 15 -6 15 C-6 10.38 -6 5.76 -6 1 C-2 0 -2 0 0 0 Z " fill="#CEC9C4" transform="translate(125,146)"/>
<path d="M0 0 C2.64 0 5.28 0 8 0 C7.67 2.31 7.34 4.62 7 7 C-5.87 7 -18.74 7 -32 7 C-32 6.01 -32 5.02 -32 4 C-21.11 3.67 -10.22 3.34 1 3 C0.505 1.515 0.505 1.515 0 0 Z " fill="#4C5964" transform="translate(107,116)"/>
<path d="M0 0 C1.32 0.33 2.64 0.66 4 1 C4 4.3 4 7.6 4 11 C3.34 11 2.68 11 2 11 C1.71125 11.763125 1.4225 12.52625 1.125 13.3125 C0 16 0 16 -2 19 C-2.60103341 21.21389829 -3.13675809 23.44602579 -3.625 25.6875 C-3.88539063 26.86699219 -4.14578125 28.04648438 -4.4140625 29.26171875 C-4.60742188 30.16535156 -4.80078125 31.06898437 -5 32 C-2.03 32 0.94 32 4 32 C3.67 32.66 3.34 33.32 3 34 C1.68 34 0.36 34 -1 34 C-1 34.66 -1 35.32 -1 36 C-0.34 36.33 0.32 36.66 1 37 C-2.85645121 37.22036864 -5.49223216 36.60355101 -9 35 C-7.62137947 28.45818046 -5.93603584 22.08504418 -4 15.6875 C-3.73960937 14.80771484 -3.47921875 13.92792969 -3.2109375 13.02148438 C-2.95570313 12.17263672 -2.70046875 11.32378906 -2.4375 10.44921875 C-2.20933594 9.68955811 -1.98117188 8.92989746 -1.74609375 8.1472168 C-1 6 -1 6 0.15234375 3.84692383 C0.43207031 3.23743896 0.71179688 2.6279541 1 2 C0.67 1.34 0.34 0.68 0 0 Z " fill="#6F8DA4" transform="translate(244,80)"/>
<path d="M0 0 C-0.33 1.65 -0.66 3.3 -1 5 C-3 4 -3 4 -4 3 C-4.99 3.66 -5.98 4.32 -7 5 C-5.35 5.66 -3.7 6.32 -2 7 C-2 7.66 -2 8.32 -2 9 C-10.25 9 -18.5 9 -27 9 C-27 8.34 -27 7.68 -27 7 C-21.72 7 -16.44 7 -11 7 C-11 6.34 -11 5.68 -11 5 C-12.3921875 5.061875 -12.3921875 5.061875 -13.8125 5.125 C-17 5 -17 5 -20 3 C-19.67 3.99 -19.34 4.98 -19 6 C-20.9375 5.6875 -20.9375 5.6875 -23 5 C-23.33 4.01 -23.66 3.02 -24 2 C-24.66 1.67 -25.32 1.34 -26 1 C-22.04169483 0.83265991 -18.08335144 0.66624177 -14.125 0.5 C-12.43310547 0.42845703 -12.43310547 0.42845703 -10.70703125 0.35546875 C-9.63066406 0.31035156 -8.55429688 0.26523438 -7.4453125 0.21875 C-5.95281982 0.1559082 -5.95281982 0.1559082 -4.43017578 0.09179688 C-2.95418617 0.0360432 -1.47704224 0 0 0 Z " fill="#577076" transform="translate(186,113)"/>
<path d="M0 0 C0.99 0 1.98 0 3 0 C2.67 1.65 2.34 3.3 2 5 C2.66 5 3.32 5 4 5 C3.32584613 10.2584002 1.75734451 15.02638346 0 20 C1.66666667 20.33333333 3.33333333 20.66666667 5 21 C6.66666667 21.33333333 8.33333333 21.66666667 10 22 C10.33 22.99 10.66 23.98 11 25 C6.71 25 2.42 25 -2 25 C-2.33 24.34 -2.66 23.68 -3 23 C-3.66 23.33 -4.32 23.66 -5 24 C-5 22.35 -5 20.7 -5 19 C-4.34 19 -3.68 19 -3 19 C-3.20496094 18.14019531 -3.40992188 17.28039062 -3.62109375 16.39453125 C-4.05334803 12.52206769 -3.40506086 10.31738677 -2.0625 6.6875 C-0.66108421 3.43157544 -0.66108421 3.43157544 0 0 Z " fill="#050D13" transform="translate(235,95)"/>
<path d="M0 0 C-0.33 0.66 -0.66 1.32 -1 2 C1.31 2.33 3.62 2.66 6 3 C6.33 3.99 6.66 4.98 7 6 C4.36 6.33 1.72 6.66 -1 7 C-1.06058594 8.05960938 -1.12117187 9.11921875 -1.18359375 10.2109375 C-1.26800127 11.59897221 -1.35264917 12.98699232 -1.4375 14.375 C-1.49647461 15.42300781 -1.49647461 15.42300781 -1.55664062 16.4921875 C-1.88671875 21.7734375 -1.88671875 21.7734375 -3 24 C-3.66 24 -4.32 24 -5 24 C-5 25.32 -5 26.64 -5 28 C-4.34 28.33 -3.68 28.66 -3 29 C-3.66 29 -4.32 29 -5 29 C-4.67 30.32 -4.34 31.64 -4 33 C-4.66 33 -5.32 33 -6 33 C-6 22.11 -6 11.22 -6 0 C-3.50907189 -1.24546405 -2.58919267 -0.7767578 0 0 Z " fill="#040305" transform="translate(191,116)"/>
<path d="M0 0 C1.70542969 0.2165625 1.70542969 0.2165625 3.4453125 0.4375 C13.03329553 1.60656292 22.32830058 2.27988841 32 2 C31.67 3.32 31.34 4.64 31 6 C20.11 6 9.22 6 -2 6 C-2 5.01 -2 4.02 -2 3 C-1.34 3 -0.68 3 0 3 C0 2.01 0 1.02 0 0 Z " fill="#756963" transform="translate(74,111)"/>
<path d="M0 0 C26.4 0 52.8 0 80 0 C80 0.33 80 0.66 80 1 C78.78850533 1.01213028 78.78850533 1.01213028 77.55253601 1.02450562 C69.94508016 1.10241146 62.33781722 1.18968977 54.73059368 1.28752708 C50.81953677 1.33749615 46.90850694 1.383826 42.99731445 1.421875 C39.22355715 1.45872031 35.45002617 1.50507793 31.67646217 1.55806351 C30.23599017 1.57661153 28.79546965 1.59171801 27.35492516 1.60334396 C25.33897807 1.62019865 23.32315556 1.65036894 21.30737305 1.68115234 C20.15931686 1.69447601 19.01126068 1.70779968 17.82841492 1.7215271 C14.79609334 1.79612833 14.79609334 1.79612833 12 4 C10.68 4 9.36 4 8 4 C8 4.99 8 5.98 8 7 C5.36 7 2.72 7 0 7 C0 4.69 0 2.38 0 0 Z " fill="#C4C0BA" transform="translate(232,140)"/>
<path d="M0 0 C0.66 0 1.32 0 2 0 C2 0.66 2 1.32 2 2 C2.99 2.33 3.98 2.66 5 3 C5.33 3.66 5.66 4.32 6 5 C6.33 4.34 6.66 3.68 7 3 C7.66 3.33 8.32 3.66 9 4 C9.66 4 10.32 4 11 4 C11 4.66 11 5.32 11 6 C11.99 5.67 12.98 5.34 14 5 C13.67 5.99 13.34 6.98 13 8 C9.33694766 8.74926071 6.57644848 9.2380014 3 8 C2.67 9.32 2.34 10.64 2 12 C-0.31 11.67 -2.62 11.34 -5 11 C-5 10.01 -5 9.02 -5 8 C-6.65 8 -8.3 8 -10 8 C-10 8.66 -10 9.32 -10 10 C-11.32 10 -12.64 10 -14 10 C-13.67 9.01 -13.34 8.02 -13 7 C-11.35 7 -9.7 7 -8 7 C-7.67 6.01 -7.34 5.02 -7 4 C-7 4.99 -7 5.98 -7 7 C-6.34 6.67 -5.68 6.34 -5 6 C-4.67 5.01 -4.34 4.02 -4 3 C-1.9375 2.3125 -1.9375 2.3125 0 2 C0 1.34 0 0.68 0 0 Z " fill="#66574A" transform="translate(134,76)"/>
<path d="M0 0 C2.01822917 0.06510417 4.03645833 0.13020833 6.0546875 0.1953125 C5.4153125 0.4428125 4.7759375 0.6903125 4.1171875 0.9453125 C1.86727209 2.01093683 1.86727209 2.01093683 1.3046875 4.3203125 C1.2221875 4.9390625 1.1396875 5.5578125 1.0546875 6.1953125 C-1.5853125 6.5253125 -4.2253125 6.8553125 -6.9453125 7.1953125 C-6.9453125 9.1753125 -6.9453125 11.1553125 -6.9453125 13.1953125 C-7.57179688 13.23269531 -8.19828125 13.27007812 -8.84375 13.30859375 C-9.66101563 13.37433594 -10.47828125 13.44007812 -11.3203125 13.5078125 C-12.53847656 13.59482422 -12.53847656 13.59482422 -13.78125 13.68359375 C-16.32452588 14.02521778 -16.32452588 14.02521778 -17.9453125 17.1953125 C-20.5703125 17.3828125 -20.5703125 17.3828125 -22.9453125 17.1953125 C-22.9453125 16.5353125 -22.9453125 15.8753125 -22.9453125 15.1953125 C-24.2653125 15.1953125 -25.5853125 15.1953125 -26.9453125 15.1953125 C-26.9453125 14.5353125 -26.9453125 13.8753125 -26.9453125 13.1953125 C-25.7078125 12.8653125 -24.4703125 12.5353125 -23.1953125 12.1953125 C-22.15117188 11.916875 -22.15117188 11.916875 -21.0859375 11.6328125 C-18.9453125 11.1953125 -18.9453125 11.1953125 -14.9453125 11.1953125 C-14.9453125 10.2053125 -14.9453125 9.2153125 -14.9453125 8.1953125 C-13.800625 7.8240625 -13.800625 7.8240625 -12.6328125 7.4453125 C-9.708908 6.08535692 -8.64526894 4.87945424 -6.9453125 2.1953125 C-6.2853125 2.5253125 -5.6253125 2.8553125 -4.9453125 3.1953125 C-4.6153125 2.8653125 -4.2853125 2.5353125 -3.9453125 2.1953125 C-1.9453125 0.1953125 -1.9453125 0.1953125 0 0 Z " fill="#7D97AB" transform="translate(127.9453125,76.8046875)"/>
<path d="M0 0 C2.1631336 0.07881165 4.32641441 0.14551515 6.48999023 0.2109375 C7.86306118 0.25710207 9.2361093 0.30395163 10.60913086 0.3515625 C11.85170654 0.39458496 13.09428223 0.43760742 14.37451172 0.48193359 C17.20678711 0.703125 17.20678711 0.703125 18.20678711 1.703125 C18.24771648 4.03609933 18.24920434 6.37017725 18.20678711 8.703125 C17.87678711 8.703125 17.54678711 8.703125 17.20678711 8.703125 C17.20678711 6.723125 17.20678711 4.743125 17.20678711 2.703125 C4.33678711 2.703125 -8.53321289 2.703125 -21.79321289 2.703125 C-21.46321289 7.653125 -21.13321289 12.603125 -20.79321289 17.703125 C-21.45321289 17.703125 -22.11321289 17.703125 -22.79321289 17.703125 C-22.79321289 18.363125 -22.79321289 19.023125 -22.79321289 19.703125 C-17.84321289 19.703125 -12.89321289 19.703125 -7.79321289 19.703125 C-7.79321289 20.363125 -7.79321289 21.023125 -7.79321289 21.703125 C-13.07321289 21.373125 -18.35321289 21.043125 -23.79321289 20.703125 C-23.79321289 21.363125 -23.79321289 22.023125 -23.79321289 22.703125 C-24.45321289 22.703125 -25.11321289 22.703125 -25.79321289 22.703125 C-25.79321289 21.383125 -25.79321289 20.063125 -25.79321289 18.703125 C-25.13321289 18.703125 -24.47321289 18.703125 -23.79321289 18.703125 C-23.73262695 17.48753906 -23.67204102 16.27195313 -23.60961914 15.01953125 C-23.52522957 13.43488272 -23.44058079 11.85024798 -23.35571289 10.265625 C-23.29673828 9.06196289 -23.29673828 9.06196289 -23.23657227 7.83398438 C-22.90649414 1.81640625 -22.90649414 1.81640625 -21.79321289 0.703125 C-14.56244086 -0.67855118 -7.3199487 -0.26982877 0 0 Z " fill="#131214" transform="translate(211.793212890625,121.296875)"/>
<path d="M0 0 C0.495 1.485 0.495 1.485 1 3 C1.66 3 2.32 3 3 3 C3 9.27 3 15.54 3 22 C2.01 22 1.02 22 0 22 C0 17.38 0 12.76 0 8 C-13.86 8 -27.72 8 -42 8 C-42 7.67 -42 7.34 -42 7 C-28.14 7 -14.28 7 0 7 C0 6.01 0 5.02 0 4 C-7.59 4 -15.18 4 -23 4 C-23 3.67 -23 3.34 -23 3 C-15.41 3 -7.82 3 0 3 C0 2.01 0 1.02 0 0 Z " fill="#1A140F" transform="translate(229,139)"/>
<path d="M0 0 C6.93 0.495 6.93 0.495 14 1 C13.34 2.65 12.68 4.3 12 6 C18.27 6 24.54 6 31 6 C30.67 6.99 30.34 7.98 30 9 C16.14 8.505 16.14 8.505 2 8 C2 6.35 2 4.7 2 3 C1.34 3 0.68 3 0 3 C0 2.01 0 1.02 0 0 Z " fill="#67788A" transform="translate(117,114)"/>
<path d="M0 0 C4.45827926 -0.0578304 8.9164628 -0.09353855 13.375 -0.125 C15.28152344 -0.15013672 15.28152344 -0.15013672 17.2265625 -0.17578125 C18.43828125 -0.18222656 19.65 -0.18867187 20.8984375 -0.1953125 C22.01911621 -0.20578613 23.13979492 -0.21625977 24.29443359 -0.22705078 C27 0 27 0 29 2 C18.11 2.495 18.11 2.495 7 3 C7.99 4.485 7.99 4.485 9 6 C9.66 6 10.32 6 11 6 C11 5.34 11 4.68 11 4 C15.455 4.99 15.455 4.99 20 6 C20 6.66 20 7.32 20 8 C14.72 8 9.44 8 4 8 C3.67 8.66 3.34 9.32 3 10 C2.49596232 8.70990357 1.99690074 7.41786211 1.5 6.125 C1.2215625 5.40570313 0.943125 4.68640625 0.65625 3.9453125 C0 2 0 2 0 0 Z " fill="#36403A" transform="translate(155,112)"/>
<path d="M0 0 C0.66 0 1.32 0 2 0 C2.33 1.32 2.66 2.64 3 4 C2.01 4 1.02 4 0 4 C0 4.99 0 5.98 0 7 C3.465 6.505 3.465 6.505 7 6 C6.34 4.68 5.68 3.36 5 2 C5.66 1.67 6.32 1.34 7 1 C7 1.66 7 2.32 7 3 C7.66 3 8.32 3 9 3 C9 3.66 9 4.32 9 5 C12.465 4.505 12.465 4.505 16 4 C15.67 4.66 15.34 5.32 15 6 C16.47906892 6.02689216 17.95827483 6.04634621 19.4375 6.0625 C20.67306641 6.07990234 20.67306641 6.07990234 21.93359375 6.09765625 C23.99163938 6.23267348 23.99163938 6.23267348 25 5 C24.01 4.67 23.02 4.34 22 4 C22.33 3.01 22.66 2.02 23 1 C23 1.66 23 2.32 23 3 C25.31 3 27.62 3 30 3 C30.495 4.485 30.495 4.485 31 6 C31.99 6.33 32.98 6.66 34 7 C34 7.33 34 7.66 34 8 C17.83 8 1.66 8 -15 8 C-15 7.67 -15 7.34 -15 7 C-10.38 7 -5.76 7 -1 7 C-0.67 4.69 -0.34 2.38 0 0 Z " fill="#645D54" transform="translate(158,81)"/>
<path d="M0 0 C0.33 0.66 0.66 1.32 1 2 C1.99 1.938125 2.98 1.87625 4 1.8125 C8.46888211 1.78508355 11.91304608 3.2791773 16 5 C14.02 5.99 14.02 5.99 12 7 C12.99 7.66 13.98 8.32 15 9 C12.02077407 9.02683987 9.04178705 9.04676037 6.0625 9.0625 C4.78729492 9.07506836 4.78729492 9.07506836 3.48632812 9.08789062 C2.67744141 9.09111328 1.86855469 9.09433594 1.03515625 9.09765625 C0.2862915 9.10289307 -0.46257324 9.10812988 -1.23413086 9.11352539 C-3 9 -3 9 -4 8 C-3.71269945 5.66055264 -3.38063221 3.3260857 -3 1 C-2.01 0.67 -1.02 0.34 0 0 Z " fill="#2B2724" transform="translate(161,143)"/>
<path d="M0 0 C3.96 1.32 7.92 2.64 12 4 C11.01 4.495 11.01 4.495 10 5 C10 6.32 10 7.64 10 9 C9.01 9.495 9.01 9.495 8 10 C8 11.32 8 12.64 8 14 C7.01 13.67 6.02 13.34 5 13 C5 15.31 5 17.62 5 20 C3.35 20 1.7 20 0 20 C0.185625 19.113125 0.37125 18.22625 0.5625 17.3125 C1.41988288 11.54898177 0.53474398 5.7633518 0 0 Z " fill="#6788A2" transform="translate(71,91)"/>
<path d="M0 0 C25.74 0 51.48 0 78 0 C78 0.66 78 1.32 78 2 C4 2 4 2 0 0 Z " fill="#161E25" transform="translate(234,124)"/>
<path d="M0 0 C2.64 0 5.28 0 8 0 C8 2.64 8 5.28 8 8 C9.32 8.66 10.64 9.32 12 10 C6.555 10.495 6.555 10.495 1 11 C0.67 10.01 0.34 9.02 0 8 C0.99 8 1.98 8 3 8 C3.33 6.68 3.66 5.36 4 4 C3.34 4.66 2.68 5.32 2 6 C2 6.33 2 6.66 2 7 C-0.31 7.33 -2.62 7.66 -5 8 C-4.67 5.69 -4.34 3.38 -4 1 C-2.02 1.495 -2.02 1.495 0 2 C0 1.34 0 0.68 0 0 Z M8 3 C8.99 3.495 8.99 3.495 10 4 C9.01 4.495 9.01 4.495 8 5 C8 4.34 8 3.68 8 3 Z " fill="#9BB2C0" transform="translate(180,64)"/>
<path d="M0 0 C0.99 0 1.98 0 3 0 C3 0.99 3 1.98 3 3 C9.27 3 15.54 3 22 3 C22 3.66 22 4.32 22 5 C8.8 5 -4.4 5 -18 5 C-18.33 4.34 -18.66 3.68 -19 3 C-12.73 3 -6.46 3 0 3 C0 2.01 0 1.02 0 0 Z " fill="#A19E9A" transform="translate(93,137)"/>
<path d="M0 0 C0.66 0 1.32 0 2 0 C2 1.98 2 3.96 2 6 C10.58 6 19.16 6 28 6 C28 6.99 28 7.98 28 9 C18.76 9 9.52 9 0 9 C0 6.03 0 3.06 0 0 Z " fill="#151B1F" transform="translate(117,117)"/>
<path d="M0 0 C3.3 0 6.6 0 10 0 C10 0.66 10 1.32 10 2 C11.1446875 1.7525 11.1446875 1.7525 12.3125 1.5 C15 1 15 1 18 1 C18 1.66 18 2.32 18 3 C20.97 3 23.94 3 27 3 C27 3.99 27 4.98 27 6 C20.4 6 13.8 6 7 6 C7.66 4.35 8.32 2.7 9 1 C6.03 1 3.06 1 0 1 C0 0.67 0 0.34 0 0 Z " fill="#34504F" transform="translate(122,114)"/>
<path d="M0 0 C2.65575614 3.13862089 3.77207194 6.10266311 5 10 C8.68778194 9.69077186 12.37516656 9.37702753 16.0625 9.0625 C17.10083984 8.97548828 18.13917969 8.88847656 19.20898438 8.79882812 C24.50327607 8.34503169 29.75044051 7.82652639 35 7 C30.39018177 11.60981823 23.07834317 11.10827769 16.93359375 11.13623047 C13.28811982 11.11982869 9.64484549 11.0707737 6 11 C6.28875 11.62648438 6.5775 12.25296875 6.875 12.8984375 C7.24625 13.71570313 7.6175 14.53296875 8 15.375 C8.37125 16.18710938 8.7425 16.99921875 9.125 17.8359375 C10 20 10 20 10 22 C9.34 22 8.68 22 8 22 C7.32404685 20.58774074 6.65959941 19.16997095 6 17.75 C5.62875 16.96109375 5.2575 16.1721875 4.875 15.359375 C4 13 4 13 4 9 C3.01 9 2.02 9 1 9 C0.67 6.03 0.34 3.06 0 0 Z " fill="#424A50" transform="translate(192,89)"/>
<path d="M0 0 C0.66 0.99 1.32 1.98 2 3 C0.35 3 -1.3 3 -3 3 C-3 4.32 -3 5.64 -3 7 C-8.28 7 -13.56 7 -19 7 C-17 3 -17 3 -15.21240234 2.27050781 C-14.51066895 2.16577148 -13.80893555 2.06103516 -13.0859375 1.953125 C-11.94511719 1.76943359 -11.94511719 1.76943359 -10.78125 1.58203125 C-9.9871875 1.47246094 -9.193125 1.36289063 -8.375 1.25 C-7.57320312 1.12496094 -6.77140625 0.99992188 -5.9453125 0.87109375 C-3.96594672 0.56476333 -1.98322165 0.280284 0 0 Z " fill="#0E0D0A" transform="translate(150,144)"/>
<path d="M0 0 C1.65 0 3.3 0 5 0 C5 0.99 5 1.98 5 3 C8.21903085 4.60951543 11.74838832 4.24234748 15.2890625 4.31640625 C16.51669815 4.3475779 16.51669815 4.3475779 17.76913452 4.37937927 C20.38766966 4.44484812 23.00630639 4.50374726 25.625 4.5625 C27.39844807 4.60568776 29.17188581 4.64930214 30.9453125 4.69335938 C35.29677046 4.80052676 39.64833077 4.90180169 44 5 C44 5.33 44 5.66 44 6 C28.49 6 12.98 6 -3 6 C-3.33 4.68 -3.66 3.36 -4 2 C-2.68 2 -1.36 2 0 2 C0 1.34 0 0.68 0 0 Z " fill="#514336" transform="translate(124,84)"/>
<path d="M0 0 C0.33 0.66 0.66 1.32 1 2 C1.66 1.67 2.32 1.34 3 1 C5.6723621 0.86584528 8.32250488 0.95681459 11 1 C11.33 2.32 11.66 3.64 12 5 C11.01 5.33 10.02 5.66 9 6 C8.67 6.99 8.34 7.98 8 9 C7 8 7 8 6.9375 5.4375 C6.958125 4.633125 6.97875 3.82875 7 3 C6.34 3 5.68 3 5 3 C5 4.65 5 6.3 5 8 C1.65747276 8.07427838 -0.8035914 8.06546953 -4 7 C-4 6.01 -4 5.02 -4 4 C-2.68 4 -1.36 4 0 4 C0 2.68 0 1.36 0 0 Z " fill="#9EB4C5" transform="translate(149,75)"/>
<path d="M0 0 C0 1.65 0 3.3 0 5 C-7.26 5 -14.52 5 -22 5 C-22 4.34 -22 3.68 -22 3 C-19.64741656 2.49133331 -17.29338596 1.9929375 -14.9375 1.5 C-13.95233398 1.28537109 -13.95233398 1.28537109 -12.94726562 1.06640625 C-8.56860012 0.16047545 -4.49581296 -0.14031146 0 0 Z " fill="#C9C7C2" transform="translate(184,156)"/>
<path d="M0 0 C0.66 0 1.32 0 2 0 C2.66 1.98 3.32 3.96 4 6 C4.33 6 4.66 6 5 6 C5.19456705 7.95764383 5.38044247 9.91615321 5.5625 11.875 C5.66691406 12.96554688 5.77132812 14.05609375 5.87890625 15.1796875 C6 18 6 18 5 20 C5.66 20 6.32 20 7 20 C7 21.32 7 22.64 7 24 C6.34 24 5.68 24 5 24 C4.67 24.66 4.34 25.32 4 26 C3.32364936 22.79363027 2.66067552 19.58463311 2 16.375 C1.80921875 15.47136719 1.6184375 14.56773438 1.421875 13.63671875 C0.47789602 9.01796444 -0.25214768 4.74352828 0 0 Z " fill="#101923" transform="translate(67,90)"/>
<path d="M0 0 C1.31289576 0.36033648 2.6226563 0.73222076 3.9296875 1.11328125 C10.01784359 2.77240271 16.08313043 4.11773372 22.3046875 5.17578125 C23.05250488 5.30299561 23.80032227 5.43020996 24.57080078 5.5612793 C26.31465348 5.85410721 28.05955408 6.1406852 29.8046875 6.42578125 C29.4746875 8.07578125 29.1446875 9.72578125 28.8046875 11.42578125 C28.1446875 11.42578125 27.4846875 11.42578125 26.8046875 11.42578125 C26.8046875 10.10578125 26.8046875 8.78578125 26.8046875 7.42578125 C26.01449219 7.41160156 25.22429687 7.39742188 24.41015625 7.3828125 C13.72568592 6.93101204 4.03657281 4.38190163 -6.1953125 1.42578125 C-3.1953125 -0.57421875 -3.1953125 -0.57421875 0 0 Z " fill="#08121E" transform="translate(79.1953125,91.57421875)"/>
<path d="M0 0 C0.66 0 1.32 0 2 0 C1.15096798 3.86455954 -0.21579749 7.53808048 -1.5625 11.25 C-1.79646484 11.8996875 -2.03042969 12.549375 -2.27148438 13.21875 C-2.84592787 14.81312378 -3.4227293 16.40664767 -4 18 C-4.66 18 -5.32 18 -6 18 C-5.67 16.35 -5.34 14.7 -5 13 C-6.1446875 13.495 -6.1446875 13.495 -7.3125 14 C-10 15 -10 15 -13 15 C-11.83029778 11.49089335 -11.14951072 11.21825302 -8.0625 9.4375 C-3.61037832 6.84379572 -1.80104706 4.88855629 0 0 Z " fill="#02060B" transform="translate(243,82)"/>
<path d="M0 0 C0.33 0.99 0.66 1.98 1 3 C6.28 3.33 11.56 3.66 17 4 C17 4.33 17 4.66 17 5 C20.3 5.33 23.6 5.66 27 6 C27.33 4.68 27.66 3.36 28 2 C28 3.65 28 5.3 28 7 C23.90661348 7.04939115 19.81334202 7.08571501 15.71972656 7.10986328 C14.32679219 7.11992877 12.93387898 7.13358234 11.54101562 7.15087891 C9.5404564 7.1751022 7.53974385 7.18540814 5.5390625 7.1953125 C4.33459473 7.20578613 3.13012695 7.21625977 1.88916016 7.22705078 C-1 7 -1 7 -3 5 C-3 3.68 -3 2.36 -3 1 C-2.01 1.495 -2.01 1.495 -1 2 C-0.67 1.34 -0.34 0.68 0 0 Z " fill="#4B4949" transform="translate(202,112)"/>
<path d="M0 0 C2.33006911 0.35543427 4.66327016 0.6913753 7 1 C7 1.33 7 1.66 7 2 C4.43850372 2.50567729 1.87600535 3.00470132 -0.6875 3.5 C-1.7693457 3.71462891 -1.7693457 3.71462891 -2.87304688 3.93359375 C-6.63841359 4.65571887 -10.14473813 5.1824976 -14 5 C-13.67 4.01 -13.34 3.02 -13 2 C-14.32 1.67 -15.64 1.34 -17 1 C-11.25472393 -1.29811043 -5.96422183 -1.98807394 0 0 Z " fill="#BBBAB4" transform="translate(138,144)"/>
<path d="M0 0 C2.64 0 5.28 0 8 0 C8 0.99 8 1.98 8 3 C10.31 3.33 12.62 3.66 15 4 C15 4.33 15 4.66 15 5 C11.00204108 5.95619733 7.29196078 6.1039592 3.1875 6.0625 C2.02605469 6.05347656 0.86460937 6.04445313 -0.33203125 6.03515625 C-1.21246094 6.02355469 -2.09289062 6.01195313 -3 6 C-1.68 5.34 -0.36 4.68 1 4 C-0.98 4 -2.96 4 -5 4 C-4.01 3.01 -3.02 2.02 -2 1 C-1.34 1.33 -0.68 1.66 0 2 C0 1.34 0 0.68 0 0 Z " fill="#46484D" transform="translate(172,82)"/>
<path d="M0 0 C2 1.375 2 1.375 4 3 C4 3.66 4 4.32 4 5 C4.66 5 5.32 5 6 5 C6.28875 5.804375 6.5775 6.60875 6.875 7.4375 C7.73262568 10.1326468 7.73262568 10.1326468 10 11 C8.35 11.66 6.7 12.32 5 13 C4.67 12.01 4.34 11.02 4 10 C3.01 10.495 3.01 10.495 2 11 C1.67 9.68 1.34 8.36 1 7 C0.67 7.99 0.34 8.98 0 10 C-0.66 10 -1.32 10 -2 10 C-2.66 8.35 -3.32 6.7 -4 5 C-3.34 5 -2.68 5 -2 5 C-2 4.01 -2 3.02 -2 2 C-1.34 2 -0.68 2 0 2 C0 1.34 0 0.68 0 0 Z " fill="#ACC7D3" transform="translate(162,57)"/>
<path d="M0 0 C6.6 0 13.2 0 20 0 C20 0.33 20 0.66 20 1 C18.35 1 16.7 1 15 1 C15 1.99 15 2.98 15 4 C10.38 4 5.76 4 1 4 C0.67 2.68 0.34 1.36 0 0 Z " fill="#E5E2DC" transform="translate(161,141)"/>
<path d="M0 0 C0.93972656 0.48082031 1.87945312 0.96164063 2.84765625 1.45703125 C7.61796999 3.50145143 12.30878122 3.55826663 17.4375 3.6875 C18.82098633 3.73874023 18.82098633 3.73874023 20.23242188 3.79101562 C22.48815951 3.87282994 24.74354119 3.94219122 27 4 C27 4.33 27 4.66 27 5 C14.13 5 1.26 5 -12 5 C-12 4.34 -12 3.68 -12 3 C-6.06 2.505 -6.06 2.505 0 2 C0 1.34 0 0.68 0 0 Z " fill="#607887" transform="translate(245,117)"/>
<path d="M0 0 C0 1.98 0 3.96 0 6 C0.66 5.34 1.32 4.68 2 4 C2 3.67 2 3.34 2 3 C5.465 2.505 5.465 2.505 9 2 C8.67 3.32 8.34 4.64 8 6 C7.01 6 6.02 6 5 6 C5 7.32 5 8.64 5 10 C2 11 2 11 -0.1875 10.0625 C-0.785625 9.711875 -1.38375 9.36125 -2 9 C-2 7.35 -2 5.7 -2 4 C-3.98 4.33 -5.96 4.66 -8 5 C-5.93424534 2.72766987 -3.29882018 0 0 0 Z " fill="#515D61" transform="translate(175,66)"/>
<path d="M0 0 C15.79595474 -0.65918204 15.79595474 -0.65918204 22 3 C22.33 3.99 22.66 4.98 23 6 C21.33388095 6.042721 19.66617115 6.04063832 18 6 C17.67 5.67 17.34 5.34 17 5 C15.845 4.835 14.69 4.67 13.5 4.5 C10 4 10 4 9 3 C7.48834346 2.60851239 5.96530368 2.26027543 4.4375 1.9375 C3.61121094 1.76089844 2.78492188 1.58429688 1.93359375 1.40234375 C1.29550781 1.26957031 0.65742188 1.13679687 0 1 C0 0.67 0 0.34 0 0 Z " fill="#484647" transform="translate(128,155)"/>
<path d="M0 0 C0 1.32 0 2.64 0 4 C-5.445 3.505 -5.445 3.505 -11 3 C-11 2.34 -11 1.68 -11 1 C-15.29 1 -19.58 1 -24 1 C-24 0.67 -24 0.34 -24 0 C-7.02908726 -2.0220662 -7.02908726 -2.0220662 0 0 Z " fill="#0A0607" transform="translate(187,150)"/>
<path d="M0 0 C6.93 0 13.86 0 21 0 C21 0.99 21 1.98 21 3 C12.09 3 3.18 3 -6 3 C-6 2.67 -6 2.34 -6 2 C-4.02 1.67 -2.04 1.34 0 1 C0 0.67 0 0.34 0 0 Z " fill="#696D70" transform="translate(208,115)"/>
<path d="M0 0 C2.03125 0.0859375 2.03125 0.0859375 4.5 0.375 C5.3146875 0.46523438 6.129375 0.55546875 6.96875 0.6484375 C9 1 9 1 10 2 C12.32817964 2.36760731 14.6618385 2.70241581 17 3 C17 3.99 17 4.98 17 6 C17.66 6.33 18.32 6.66 19 7 C17.68 7 16.36 7 15 7 C15 6.34 15 5.68 15 5 C14.360625 5.226875 13.72125 5.45375 13.0625 5.6875 C8.62479709 6.14032683 5.10486859 4.58292318 1 3 C0.67 3.66 0.34 4.32 0 5 C-0.5625 3.0625 -0.5625 3.0625 -1 1 C-0.67 0.67 -0.34 0.34 0 0 Z " fill="#799AB4" transform="translate(65,50)"/>
<path d="M0 0 C2 3 2 3 2 8 C-5.92 8 -13.84 8 -22 8 C-21.67 9.65 -21.34 11.3 -21 13 C-21.66 12.67 -22.32 12.34 -23 12 C-23.33 10.35 -23.66 8.7 -24 7 C-15.75 7 -7.5 7 1 7 C1 6.34 1 5.68 1 5 C-0.175625 4.814375 -0.175625 4.814375 -1.375 4.625 C-4 4 -4 4 -6 2 C-3 0 -3 0 0 0 Z " fill="#2F3C45" transform="translate(183,115)"/>
<path d="M0 0 C3.465 1.98 3.465 1.98 7 4 C7 6.31 7 8.62 7 11 C0.25 13 0.25 13 -2 13 C-2 12.34 -2 11.68 -2 11 C-0.02 11 1.96 11 4 11 C0.99580359 9.9986012 -1.87709365 9.48578543 -5 9 C-4.360625 8.896875 -3.72125 8.79375 -3.0625 8.6875 C-2.0415625 8.3471875 -2.0415625 8.3471875 -1 8 C-0.67 7.01 -0.34 6.02 0 5 C0.99 5.33 1.98 5.66 3 6 C2.2575 5.071875 2.2575 5.071875 1.5 4.125 C0 2 0 2 0 0 Z " fill="#4B585A" transform="translate(152,64)"/>
<path d="M0 0 C0.66 0 1.32 0 2 0 C2 6.93 2 13.86 2 21 C0.68 21 -0.64 21 -2 21 C-2 18.69 -2 16.38 -2 14 C-1.34 14 -0.68 14 0 14 C0 9.38 0 4.76 0 0 Z " fill="#4A4640" transform="translate(117,140)"/>
<path d="M0 0 C0.33 0 0.66 0 1 0 C1.05789006 3.45826342 1.09355821 6.91640293 1.125 10.375 C1.14175781 11.35984375 1.15851563 12.3446875 1.17578125 13.359375 C1.18222656 14.30039063 1.18867187 15.24140625 1.1953125 16.2109375 C1.20578613 17.08024902 1.21625977 17.94956055 1.22705078 18.84521484 C1 21 1 21 -1 23 C-3.07864192 20.92135808 -2.18513792 16.60812111 -2.1875 13.75 C-2.19974609 12.98558594 -2.21199219 12.22117187 -2.22460938 11.43359375 C-2.23567367 7.16277608 -1.9715764 3.89639605 0 0 Z " fill="#03050A" transform="translate(116,115)"/>
<path d="M0 0 C5.65020618 0.60108576 10.66164461 2.07528683 16 4 C16 4.66 16 5.32 16 6 C16.99 6 17.98 6 19 6 C19 6.66 19 7.32 19 8 C22.3 8.99 25.6 9.98 29 11 C24.88734722 12.02816319 23.79236019 11.91431071 19.9375 10.6875 C18.65166016 10.29111328 18.65166016 10.29111328 17.33984375 9.88671875 C15 9 15 9 12 7 C12 6.34 12 5.68 12 5 C11.319375 4.896875 10.63875 4.79375 9.9375 4.6875 C6.37084011 3.85274981 3.33777806 2.50527246 0 1 C0 0.67 0 0.34 0 0 Z " fill="#86A8C0" transform="translate(85,57)"/>
<path d="M0 0 C7.59 0 15.18 0 23 0 C23 0.33 23 0.66 23 1 C20.94921875 1.22786458 18.8984375 1.45572917 16.84765625 1.68359375 C14.98859771 1.81886614 14.98859771 1.81886614 14 3 C11.64686445 3.07271741 9.29166332 3.08370868 6.9375 3.0625 C5.64714844 3.05347656 4.35679687 3.04445313 3.02734375 3.03515625 C2.02832031 3.02355469 1.02929688 3.01195313 0 3 C0 2.01 0 1.02 0 0 Z " fill="#141B1D" transform="translate(161,123)"/>
<path d="M0 0 C0.66 0.33 1.32 0.66 2 1 C2 2.98 2 4.96 2 7 C-7.1775727 7.8149484 -15.81819633 8.11139151 -25 7 C-25 6.67 -25 6.34 -25 6 C-16.64895793 5.31728707 -8.38011029 4.84607961 0 5 C0 3.35 0 1.7 0 0 Z " fill="#7A8899" transform="translate(104,106)"/>
<path d="M0 0 C1.91635217 -0.05423638 3.83314925 -0.09289963 5.75 -0.125 C7.35101563 -0.15980469 7.35101563 -0.15980469 8.984375 -0.1953125 C11.92470106 -0.00487687 13.52361878 0.47329896 16 2 C14.02 2 12.04 2 10 2 C10 2.66 10 3.32 10 4 C6.37 4 2.74 4 -1 4 C-0.67 2.68 -0.34 1.36 0 0 Z " fill="#221C17" transform="translate(128,91)"/>
<path d="M0 0 C1.24523437 0.01804687 2.49046875 0.03609375 3.7734375 0.0546875 C5.18496094 0.08949219 5.18496094 0.08949219 6.625 0.125 C6.625 0.785 6.625 1.445 6.625 2.125 C5.99851562 2.16238281 5.37203125 2.19976562 4.7265625 2.23828125 C3.90929687 2.30402344 3.09203125 2.36976562 2.25 2.4375 C1.03183594 2.52451172 1.03183594 2.52451172 -0.2109375 2.61328125 C-2.75421338 2.95490528 -2.75421338 2.95490528 -4.375 6.125 C-7 6.3125 -7 6.3125 -9.375 6.125 C-9.375 5.465 -9.375 4.805 -9.375 4.125 C-10.695 4.125 -12.015 4.125 -13.375 4.125 C-13.375 3.465 -13.375 2.805 -13.375 2.125 C-8.75130977 0.31820413 -4.94971347 -0.09339082 0 0 Z " fill="#7C8B9E" transform="translate(114.375,87.875)"/>
<path d="M0 0 C0.66 0 1.32 0 2 0 C2.33 3.3 2.66 6.6 3 10 C0.69 10 -1.62 10 -4 10 C-4 9.34 -4 8.68 -4 8 C-4.66 7.67 -5.32 7.34 -6 7 C-6 6.34 -6 5.68 -6 5 C-4.02 5 -2.04 5 0 5 C0 3.35 0 1.7 0 0 Z " fill="#3C3E3C" transform="translate(154,78)"/>
<path d="M0 0 C0.33 0.33 0.66 0.66 1 1 C2.155 1.144375 3.31 1.28875 4.5 1.4375 C5.655 1.623125 6.81 1.80875 8 2 C8.33 2.66 8.66 3.32 9 4 C3.39 4 -2.22 4 -8 4 C-8.33 3.34 -8.66 2.68 -9 2 C-5.55892734 -0.29404844 -4.03160191 -0.26293056 0 0 Z " fill="#C5C3C0" transform="translate(137,157)"/>
<path d="M0 0 C1.32 0 2.64 0 4 0 C4.33 2.97 4.66 5.94 5 9 C6.98 9 8.96 9 11 9 C11 9.66 11 10.32 11 11 C12.98 11 14.96 11 17 11 C17 11.33 17 11.66 17 12 C12.71 12 8.42 12 4 12 C2.68 8.04 1.36 4.08 0 0 Z " fill="#8196A4" transform="translate(199,103)"/>
<path d="M0 0 C1.32 0.33 2.64 0.66 4 1 C4 4.3 4 7.6 4 11 C3.34 11 2.68 11 2 11 C1.67 11.66 1.34 12.32 1 13 C0.01 12.67 -0.98 12.34 -2 12 C-1.48522148 8.22495756 -0.69128285 5.3825657 1 2 C0.67 1.34 0.34 0.68 0 0 Z " fill="#7191A7" transform="translate(244,80)"/>
<path d="M0 0 C-0.66 3.96 -1.32 7.92 -2 12 C-3.32 12 -4.64 12 -6 12 C-6 8.37 -6 4.74 -6 1 C-2 0 -2 0 0 0 Z " fill="#DDD8D2" transform="translate(125,146)"/>
<path d="M0 0 C1.8161982 0.42188459 3.62794073 0.86299165 5.4375 1.3125 C6.95150391 1.67794922 6.95150391 1.67794922 8.49609375 2.05078125 C9.32238281 2.36402344 10.14867187 2.67726563 11 3 C11.33 3.99 11.66 4.98 12 6 C7.71 6 3.42 6 -1 6 C-0.67 4.02 -0.34 2.04 0 0 Z " fill="#234148" transform="translate(234,114)"/>
<path d="M0 0 C0 0.66 0 1.32 0 2 C0.66 2 1.32 2 2 2 C2 3.32 2 4.64 2 6 C3.65 6 5.3 6 7 6 C7 6.33 7 6.66 7 7 C4.36 7 1.72 7 -1 7 C-1 7.66 -1 8.32 -1 9 C-1.99 8.67 -2.98 8.34 -4 8 C-4.6875 5.6875 -4.6875 5.6875 -5 3 C-3.40083326 0.79162689 -2.76966516 0 0 0 Z " fill="#8196A2" transform="translate(173,75)"/>
<path d="M0 0 C1.875 0.25 1.875 0.25 4 1 C5.125 2.8125 5.125 2.8125 6 5 C6.37125 5.7425 6.7425 6.485 7.125 7.25 C7.41375 7.8275 7.7025 8.405 8 9 C5.525 8.01 5.525 8.01 3 7 C2.67 7.33 2.34 7.66 2 8 C0.33382885 8.04063832 -1.33388095 8.042721 -3 8 C-2.25 3.25 -2.25 3.25 0 1 C0 0.67 0 0.34 0 0 Z " fill="#99B5C6" transform="translate(149,63)"/>
<path d="M0 0 C2.97 0 5.94 0 9 0 C7 4 7 4 6 5 C3.66702567 5.04092937 1.33294775 5.04241723 -1 5 C-0.67 3.35 -0.34 1.7 0 0 Z " fill="#7291A7" transform="translate(122,115)"/>
<path d="M0 0 C2 3 2 3 2 6 C2.99 6 3.98 6 5 6 C5.66 8.97 6.32 11.94 7 15 C6.01 15 5.02 15 4 15 C3.67 13.35 3.34 11.7 3 10 C2.34 10 1.68 10 1 10 C0.67 6.7 0.34 3.4 0 0 Z " fill="#3B312F" transform="translate(191,92)"/>
<path d="M0 0 C0 3 0 3 -1 7 C4.28 7.33 9.56 7.66 15 8 C15 8.33 15 8.66 15 9 C12.02077407 9.02683987 9.04178705 9.04676037 6.0625 9.0625 C4.78729492 9.07506836 4.78729492 9.07506836 3.48632812 9.08789062 C2.67744141 9.09111328 1.86855469 9.09433594 1.03515625 9.09765625 C0.2862915 9.10289307 -0.46257324 9.10812988 -1.23413086 9.11352539 C-3 9 -3 9 -4 8 C-3.71269945 5.66055264 -3.38063221 3.3260857 -3 1 C-2.01 0.67 -1.02 0.34 0 0 Z " fill="#4C4947" transform="translate(161,143)"/>
<path d="M0 0 C1.23556641 0.01740234 1.23556641 0.01740234 2.49609375 0.03515625 C3.32238281 0.04417969 4.14867187 0.05320312 5 0.0625 C5.63808594 0.07410156 6.27617187 0.08570312 6.93359375 0.09765625 C6.93359375 0.75765625 6.93359375 1.41765625 6.93359375 2.09765625 C6.27359375 2.09765625 5.61359375 2.09765625 4.93359375 2.09765625 C4.93359375 3.08765625 4.93359375 4.07765625 4.93359375 5.09765625 C2.62359375 5.09765625 0.31359375 5.09765625 -2.06640625 5.09765625 C-2.62890625 3.16015625 -2.62890625 3.16015625 -3.06640625 1.09765625 C-2.06640625 0.09765625 -2.06640625 0.09765625 0 0 Z " fill="#2D3C3A" transform="translate(144.06640625,111.90234375)"/>
<path d="M0 0 C0.99 0.495 0.99 0.495 2 1 C2.34375 3.109375 2.34375 3.109375 2.5 5.75 C2.79946421 9.57225227 3.44516471 12.47570667 5 16 C5 17.32 5 18.64 5 20 C3.35 20 1.7 20 0 20 C0.185625 19.113125 0.37125 18.22625 0.5625 17.3125 C1.41838507 11.55905036 0.56226754 5.75242941 0 0 Z " fill="#627889" transform="translate(71,91)"/>
<path d="M0 0 C0.66 0 1.32 0 2 0 C1.74706737 3.41459045 0.74051411 4.24795319 -1.8125 6.6875 C-6.24263959 9.90152284 -6.24263959 9.90152284 -9 10 C-9.66 9.34 -10.32 8.68 -11 8 C-10.28972656 7.59007813 -9.57945312 7.18015625 -8.84765625 6.7578125 C-7.92855469 6.21898438 -7.00945312 5.68015625 -6.0625 5.125 C-5.14597656 4.59132813 -4.22945312 4.05765625 -3.28515625 3.5078125 C-0.89299704 2.20287437 -0.89299704 2.20287437 0 0 Z " fill="#161E25" transform="translate(240,84)"/>
<path d="M0 0 C4.29 0 8.58 0 13 0 C13 0.66 13 1.32 13 2 C8.03926578 3.32286246 3.08888488 3.08893197 -2 3 C-1.34 2.67 -0.68 2.34 0 2 C0 1.34 0 0.68 0 0 Z " fill="#E0DDD6" transform="translate(56,141)"/>
<path d="M0 0 C3.5625 0.1875 3.5625 0.1875 5.5625 2.1875 C5.2325 2.8475 4.9025 3.5075 4.5625 4.1875 C-2.1875 4.3125 -2.1875 4.3125 -4.4375 3.1875 C-4.7675 3.8475 -5.0975 4.5075 -5.4375 5.1875 C-4.31932898 0.23559976 -4.31932898 0.23559976 0 0 Z " fill="#D2D2CE" transform="translate(140.4375,140.8125)"/>
<path d="M0 0 C9.9 0 19.8 0 30 0 C30 0.66 30 1.32 30 2 C29.01 2.33 28.02 2.66 27 3 C26.34 2.67 25.68 2.34 25 2 C23.11527141 1.84655791 21.22572126 1.75040429 19.3359375 1.68359375 C18.21445313 1.64169922 17.09296875 1.59980469 15.9375 1.55664062 C14.761875 1.51732422 13.58625 1.47800781 12.375 1.4375 C10.59996094 1.37272461 10.59996094 1.37272461 8.7890625 1.30664062 C5.85949672 1.20032574 2.92984412 1.09829358 0 1 C0 0.67 0 0.34 0 0 Z " fill="#AAA9A9" transform="translate(119,140)"/>
<path d="M0 0 C0.33 0 0.66 0 1 0 C1.28875 0.928125 1.5775 1.85625 1.875 2.8125 C2.8875 6.09791667 2.8875 6.09791667 5 9 C4 10 4 10 0.4375 10.0625 C-0.696875 10.041875 -1.83125 10.02125 -3 10 C-3 9.01 -3 8.02 -3 7 C-2.34 6.67 -1.68 6.34 -1 6 C-0.34227572 2.97065509 -0.34227572 2.97065509 0 0 Z " fill="#393428" transform="translate(161,78)"/>
<path d="M0 0 C2 1 2 1 3 2 C5.32817964 2.36760731 7.6618385 2.70241581 10 3 C10 3.66 10 4.32 10 5 C10.66 5.33 11.32 5.66 12 6 C11.01 6 10.02 6 9 6 C8.67 7.32 8.34 8.64 8 10 C6.62437146 8.71034824 5.29233607 7.37310707 4 6 C4 5.34 4 4.68 4 4 C2.68 3.67 1.36 3.34 0 3 C0 2.01 0 1.02 0 0 Z " fill="#93A9B6" transform="translate(132,72)"/>
<path d="M0 0 C5.61 0.66 11.22 1.32 17 2 C17 2.33 17 2.66 17 3 C13.04 3 9.08 3 5 3 C5 3.66 5 4.32 5 5 C3.02 5 1.04 5 -1 5 C-0.67 3.35 -0.34 1.7 0 0 Z " fill="#7F7C7E" transform="translate(74,111)"/>
<path d="M0 0 C0.99 0 1.98 0 3 0 C2.39363767 5.76044212 0.24341721 10.72014369 -2 16 C-2.66 16 -3.32 16 -4 16 C-3.31092878 12.34056353 -2.43178734 8.77558041 -1.4375 5.1875 C-1.16808594 4.21167969 -0.89867187 3.23585938 -0.62109375 2.23046875 C-0.41613281 1.49441406 -0.21117187 0.75835937 0 0 Z " fill="#27333B" transform="translate(235,95)"/>
<path d="M0 0 C0.33 0.66 0.66 1.32 1 2 C1.99 2 2.98 2 4 2 C4 4 4 6 4 8 C0.95613276 8.08226668 -1.07175348 7.97608217 -4 7 C-4 6.01 -4 5.02 -4 4 C-2.68 4 -1.36 4 0 4 C0 2.68 0 1.36 0 0 Z " fill="#8FA4B6" transform="translate(149,75)"/>
<path d="M0 0 C0.598125 0.165 1.19625 0.33 1.8125 0.5 C4.11344336 1.1114124 4.11344336 1.1114124 7 1 C7.33 1.66 7.66 2.32 8 3 C8.66 2.67 9.32 2.34 10 2 C10.33 2.99 10.66 3.98 11 5 C7.37 5 3.74 5 0 5 C0 3.35 0 1.7 0 0 Z " fill="#191718" transform="translate(147,147)"/>
<path d="M0 0 C5.28 0 10.56 0 16 0 C14.02 0.99 14.02 0.99 12 2 C11.67 2.66 11.34 3.32 11 4 C10.67 3.67 10.34 3.34 10 3 C6.33655389 2.86431681 3.49384279 2.83538574 0 4 C0 2.68 0 1.36 0 0 Z " fill="#D1CCC6" transform="translate(0,141)"/>
<path d="M0 0 C3.3 0 6.6 0 10 0 C10 0.66 10 1.32 10 2 C11.1446875 1.7525 11.1446875 1.7525 12.3125 1.5 C15 1 15 1 18 1 C18 1.99 18 2.98 18 4 C15.1875 4.625 15.1875 4.625 12 5 C11.01 4.34 10.02 3.68 9 3 C9 2.34 9 1.68 9 1 C6.03 1 3.06 1 0 1 C0 0.67 0 0.34 0 0 Z " fill="#536D75" transform="translate(122,114)"/>
<path d="M0 0 C2.31 0.33 4.62 0.66 7 1 C6.01 1.495 6.01 1.495 5 2 C5 2.99 5 3.98 5 5 C2.69 5.66 0.38 6.32 -2 7 C-1.34 4.69 -0.68 2.38 0 0 Z " fill="#7197B3" transform="translate(224,88)"/>
<path d="M0 0 C0.2475 0.598125 0.495 1.19625 0.75 1.8125 C2.07752171 4.4715904 2.07752171 4.4715904 6 7 C2.37 7.33 -1.26 7.66 -5 8 C-5.33 7.01 -5.66 6.02 -6 5 C-4.02 4.67 -2.04 4.34 0 4 C0 2.68 0 1.36 0 0 Z M2 0 C2.99 0.495 2.99 0.495 4 1 C3.01 1.495 3.01 1.495 2 2 C2 1.34 2 0.68 2 0 Z " fill="#94B6CB" transform="translate(186,67)"/>
<path d="M0 0 C3.3 0 6.6 0 10 0 C10.66 1.32 11.32 2.64 12 4 C7.97007218 3.44687265 3.97977076 2.8441938 0 2 C0 1.34 0 0.68 0 0 Z " fill="#141212" transform="translate(136,153)"/>
<path d="M0 0 C2.97 0.99 5.94 1.98 9 3 C9 3.33 9 3.66 9 4 C6.36 4 3.72 4 1 4 C1.66 5.32 2.32 6.64 3 8 C1.68 7.67 0.36 7.34 -1 7 C-0.67 4.69 -0.34 2.38 0 0 Z " fill="#2D2C31" transform="translate(158,135)"/>
<path d="M0 0 C0.99 0.33 1.98 0.66 3 1 C3.6875 4.3125 3.6875 4.3125 4 8 C2.5625 9.9375 2.5625 9.9375 1 11 C1 9.68 1 8.36 1 7 C0.34 7 -0.32 7 -1 7 C-0.67 4.69 -0.34 2.38 0 0 Z " fill="#413429" transform="translate(110,100)"/>
<path d="M0 0 C0.8125 1.6875 0.8125 1.6875 1 4 C-1.4375 6.75 -1.4375 6.75 -4 9 C-4.66 8.67 -5.32 8.34 -6 8 C-4.52307692 2.33846154 -4.52307692 2.33846154 -1.875 0.625 C-0.946875 0.315625 -0.946875 0.315625 0 0 Z " fill="#3C3E40" transform="translate(173,69)"/>
<path d="M0 0 C0.99 0 1.98 0 3 0 C3 2.31 3 4.62 3 7 C1.35 7 -0.3 7 -2 7 C-2 5.35 -2 3.7 -2 2 C-1.34 2 -0.68 2 0 2 C0 1.34 0 0.68 0 0 Z " fill="#443D35" transform="translate(70,154)"/>
<path d="M0 0 C0.66 0 1.32 0 2 0 C1.67 3.3 1.34 6.6 1 10 C0.34 10 -0.32 10 -1 10 C-1 10.66 -1 11.32 -1 12 C-1.66 12 -2.32 12 -3 12 C-3 9.36 -3 6.72 -3 4 C-2.01 4.495 -2.01 4.495 -1 5 C-0.67 3.35 -0.34 1.7 0 0 Z " fill="#2F2821" transform="translate(71,144)"/>
<path d="M0 0 C0.33 0 0.66 0 1 0 C1 1.65 1 3.3 1 5 C1.66 5 2.32 5 3 5 C3.33 7.31 3.66 9.62 4 12 C3.34 12 2.68 12 2 12 C1.67 12.99 1.34 13.98 1 15 C0.855625 13.948125 0.71125 12.89625 0.5625 11.8125 C0.07374148 8.1613357 0.07374148 8.1613357 -0.625 5.25 C-1 3 -1 3 0 0 Z " fill="#4D545E" transform="translate(105,99)"/>
<path d="M0 0 C0.77988281 -0.01417969 1.55976563 -0.02835937 2.36328125 -0.04296875 C4.8907668 0.20765587 6.50468031 0.92376228 8.6875 2.1875 C4.68954108 3.14369733 0.97946078 3.2914592 -3.125 3.25 C-4.28644531 3.24097656 -5.44789063 3.23195313 -6.64453125 3.22265625 C-7.52496094 3.21105469 -8.40539062 3.19945313 -9.3125 3.1875 C-8.673125 2.878125 -8.03375 2.56875 -7.375 2.25 C-3.0558966 0.02500734 -3.0558966 0.02500734 0 0 Z " fill="#373332" transform="translate(178.3125,84.8125)"/>
<path d="M0 0 C0.33 0.66 0.66 1.32 1 2 C3.31 2 5.62 2 8 2 C8.33 2.99 8.66 3.98 9 5 C9.99 5.33 10.98 5.66 12 6 C12 6.33 12 6.66 12 7 C9.36 7 6.72 7 4 7 C4.66 6.34 5.32 5.68 6 5 C4.02 4.34 2.04 3.68 0 3 C0 2.01 0 1.02 0 0 Z " fill="#606D74" transform="translate(180,82)"/>
<path d="M0 0 C-0.99 1.485 -0.99 1.485 -2 3 C-2 2.34 -2 1.68 -2 1 C-2.9075 1.45375 -3.815 1.9075 -4.75 2.375 C-7.16666667 3.58333333 -9.58333333 4.79166667 -12 6 C-13.32 5.01 -14.64 4.02 -16 3 C-13.89936424 2.30178583 -11.79434263 1.61675528 -9.6875 0.9375 C-8.51574219 0.55464844 -7.34398437 0.17179687 -6.13671875 -0.22265625 C-3 -1 -3 -1 0 0 Z " fill="#72899D" transform="translate(236,97)"/>
<path d="M0 0 C4.455 0.99 4.455 0.99 9 2 C9 2.66 9 3.32 9 4 C4.71 4 0.42 4 -4 4 C-3.67 3.01 -3.34 2.02 -3 1 C-2.01 1.33 -1.02 1.66 0 2 C0 1.34 0 0.68 0 0 Z " fill="#2E534B" transform="translate(166,116)"/>
<path d="M0 0 C3.96 0 7.92 0 12 0 C12 0.66 12 1.32 12 2 C9.69 2 7.38 2 5 2 C5 2.99 5 3.98 5 5 C3 5 3 5 1.375 3.625 C0 2 0 2 0 0 Z " fill="#9AB2C0" transform="translate(144,73)"/>
<path d="M0 0 C0.33 0 0.66 0 1 0 C1 4.29 1 8.58 1 13 C0.01 13 -0.98 13 -2 13 C-1.85966889 11.02043559 -1.7125877 9.04134859 -1.5625 7.0625 C-1.48128906 5.96035156 -1.40007812 4.85820312 -1.31640625 3.72265625 C-1 1 -1 1 0 0 Z " fill="#0A0C12" transform="translate(118,125)"/>
<path d="M0 0 C2.64 0 5.28 0 8 0 C7.67 2.31 7.34 4.62 7 7 C6.67 5.68 6.34 4.36 6 3 C4.35 3 2.7 3 1 3 C0.67 2.01 0.34 1.02 0 0 Z " fill="#434446" transform="translate(107,116)"/>
<path d="M0 0 C0.66 0 1.32 0 2 0 C0.125 4.75 0.125 4.75 -1 7 C-3.97 6.505 -3.97 6.505 -7 6 C-6.25 4.0625 -6.25 4.0625 -5 2 C-2.9375 1.3125 -2.9375 1.3125 -1 1 C-0.67 0.67 -0.34 0.34 0 0 Z " fill="#372F2B" transform="translate(193,110)"/>
<path d="M0 0 C0.33 1.65 0.66 3.3 1 5 C0.34 5 -0.32 5 -1 5 C-1 4.34 -1 3.68 -1 3 C-3.64 3.33 -6.28 3.66 -9 4 C-8.67 3.01 -8.34 2.02 -8 1 C-5.23735711 0.40267181 -2.83967231 0 0 0 Z " fill="#334147" transform="translate(141,112)"/>
<path d="M0 0 C2 3 2 3 2 5 C2.66 5.33 3.32 5.66 4 6 C3.67 6.66 3.34 7.32 3 8 C3.66 8 4.32 8 5 8 C5 9.32 5 10.64 5 12 C4.34 12 3.68 12 3 12 C2.67 12.66 2.34 13.32 2 14 C-0.29612756 4.58997722 -0.29612756 4.58997722 0 0 Z " fill="#282C30" transform="translate(69,102)"/>
<path d="M0 0 C-2.297221 1.74271938 -4.59866729 3.39911152 -7 5 C-7.33 4.34 -7.66 3.68 -8 3 C-9.89533342 2.53476937 -9.89533342 2.53476937 -12.0625 2.375 C-13.361875 2.25125 -14.66125 2.1275 -16 2 C-16 1.67 -16 1.34 -16 1 C-13.70952777 0.63818911 -11.41757055 0.28576776 -9.125 -0.0625 C-7.84882813 -0.25972656 -6.57265625 -0.45695312 -5.2578125 -0.66015625 C-2 -1 -2 -1 0 0 Z " fill="#7B9CB9" transform="translate(32,57)"/>
<path d="M0 0 C0.82741699 0.05236816 1.65483398 0.10473633 2.50732422 0.15869141 C3.85117188 0.23603516 3.85117188 0.23603516 5.22216797 0.31494141 C6.15931641 0.37939453 7.09646484 0.44384766 8.06201172 0.51025391 C9.00689453 0.56697266 9.95177734 0.62369141 10.92529297 0.68212891 C13.26327653 0.82382488 15.60022116 0.97525174 17.93701172 1.13525391 C17.60701172 2.12525391 17.27701172 3.11525391 16.93701172 4.13525391 C16.27701172 3.80525391 15.61701172 3.47525391 14.93701172 3.13525391 C13.49048752 2.98458177 12.03821832 2.88664355 10.58544922 2.81884766 C9.30927734 2.75600586 9.30927734 2.75600586 8.00732422 2.69189453 C7.11787109 2.65257813 6.22841797 2.61326172 5.31201172 2.57275391 C4.41482422 2.52957031 3.51763672 2.48638672 2.59326172 2.44189453 C0.37466889 2.3356853 -1.84403708 2.23364196 -4.06298828 2.13525391 C-2.06298828 0.13525391 -2.06298828 0.13525391 0 0 Z " fill="#5D7483" transform="translate(130.06298828125,118.86474609375)"/>
<path d="M0 0 C2.05078125 0.03255208 4.1015625 0.06510417 6.15234375 0.09765625 C5.51296875 0.34515625 4.87359375 0.59265625 4.21484375 0.84765625 C1.96492834 1.91328058 1.96492834 1.91328058 1.40234375 4.22265625 C1.31984375 4.84140625 1.23734375 5.46015625 1.15234375 6.09765625 C0.49234375 6.09765625 -0.16765625 6.09765625 -0.84765625 6.09765625 C-1.50765625 4.44765625 -2.16765625 2.79765625 -2.84765625 1.09765625 C-1.84765625 0.09765625 -1.84765625 0.09765625 0 0 Z " fill="#82929E" transform="translate(127.84765625,76.90234375)"/>
<path d="M0 0 C0.33 0 0.66 0 1 0 C1.07427838 3.34252724 1.06546953 5.8035914 0 9 C-1.98 9 -3.96 9 -6 9 C-5.34 8.67 -4.68 8.34 -4 8 C-3.30341637 6.34561387 -2.63903117 4.67745682 -2 3 C-1.34 2.01 -0.68 1.02 0 0 Z " fill="#4A3F39" transform="translate(196,109)"/>
<path d="M0 0 C2.64 0.33 5.28 0.66 8 1 C8 2.32 8 3.64 8 5 C7.34 5 6.68 5 6 5 C6 4.34 6 3.68 6 3 C5.38125 3.185625 4.7625 3.37125 4.125 3.5625 C2 4 2 4 0 3 C0 2.01 0 1.02 0 0 Z " fill="#65839A" transform="translate(84,96)"/>
<path d="M0 0 C0.66 0 1.32 0 2 0 C1.29666462 2.97722547 0.41751463 5.85256543 -0.5625 8.75 C-0.96662109 9.94882813 -0.96662109 9.94882813 -1.37890625 11.171875 C-1.58386719 11.77515625 -1.78882813 12.3784375 -2 13 C-2.66 12.01 -3.32 11.02 -4 10 C-3.3203125 7.51953125 -3.3203125 7.51953125 -2.125 4.8125 C-1.73570312 3.91144531 -1.34640625 3.01039062 -0.9453125 2.08203125 C-0.63335937 1.39496094 -0.32140625 0.70789063 0 0 Z " fill="#05111C" transform="translate(243,82)"/>
<path d="M0 0 C2.97 0.495 2.97 0.495 6 1 C6 1.99 6 2.98 6 4 C3.36 4 0.72 4 -2 4 C-1.34 2.68 -0.68 1.36 0 0 Z " fill="#BFBBB3" transform="translate(109,157)"/>
<path d="M0 0 C1.65 0.33 3.3 0.66 5 1 C5 1.66 5 2.32 5 3 C5.66 3.33 6.32 3.66 7 4 C5.824375 4.4640625 5.824375 4.4640625 4.625 4.9375 C2.07669872 5.92875038 2.07669872 5.92875038 0 7 C-0.93423645 3.98968256 -1.04449911 3.13349732 0 0 Z " fill="#8CAEC1" transform="translate(142,75)"/>
<path d="M0 0 C0.66 0 1.32 0 2 0 C2 0.66 2 1.32 2 2 C3.65 1.67 5.3 1.34 7 1 C7.33 2.32 7.66 3.64 8 5 C5.36 5.33 2.72 5.66 0 6 C0.33 5.01 0.66 4.02 1 3 C0.67 2.01 0.34 1.02 0 0 Z " fill="#81A0B8" transform="translate(64,73)"/>
<path d="M0 0 C2 3 2 3 1.625 5.1875 C1.41875 5.785625 1.2125 6.38375 1 7 C1 6.34 1 5.68 1 5 C0.21625 4.87625 -0.5675 4.7525 -1.375 4.625 C-4 4 -4 4 -6 2 C-3 0 -3 0 0 0 Z " fill="#34484C" transform="translate(183,115)"/>
<path d="M0 0 C-0.33 1.32 -0.66 2.64 -1 4 C-1.99 4 -2.98 4 -4 4 C-4 5.32 -4 6.64 -4 8 C-4.99 8.33 -5.98 8.66 -7 9 C-7 8.34 -7 7.68 -7 7 C-6.34 7 -5.68 7 -5 7 C-5.33 6.195625 -5.66 5.39125 -6 4.5625 C-7 2 -7 2 -7 1 C-2.25 0 -2.25 0 0 0 Z " fill="#5B7381" transform="translate(184,68)"/>
<path d="M0 0 C0.33 1.32 0.66 2.64 1 4 C1.66 4 2.32 4 3 4 C3 4.66 3 5.32 3 6 C2.34 6 1.68 6 1 6 C1 7.65 1 9.3 1 11 C0.01 11.495 0.01 11.495 -1 12 C-1.14285714 3.42857143 -1.14285714 3.42857143 0 0 Z " fill="#100C05" transform="translate(70,138)"/>
<path d="M0 0 C0.99 0.33 1.98 0.66 3 1 C2.67 1.99 2.34 2.98 2 4 C-1.3 4 -4.6 4 -8 4 C-4.77208445 1.8480563 -3.71599191 1.79913557 0 2 C0 1.34 0 0.68 0 0 Z " fill="#67879F" transform="translate(301,117)"/>
<path d="M0 0 C2.31 0 4.62 0 7 0 C7 0.99 7 1.98 7 3 C4.03 3 1.06 3 -2 3 C-1.34 2.67 -0.68 2.34 0 2 C0 1.34 0 0.68 0 0 Z " fill="#99A0A6" transform="translate(113,86)"/>
<path d="M0 0 C1.5 1.375 1.5 1.375 3 3 C3 3.66 3 4.32 3 5 C0.36 5 -2.28 5 -5 5 C-5 4.34 -5 3.68 -5 3 C-3.68 3 -2.36 3 -1 3 C-0.67 2.01 -0.34 1.02 0 0 Z " fill="#352317" transform="translate(147,83)"/>
<path d="M0 0 C2.475 0.495 2.475 0.495 5 1 C4.67 1.99 4.34 2.98 4 4 C4 4.99 4 5.98 4 7 C3.01 6.67 2.02 6.34 1 6 C0.67 4.02 0.34 2.04 0 0 Z " fill="#101622" transform="translate(67,80)"/>
<path d="M0 0 C1.65 0.33 3.3 0.66 5 1 C4.34 2.32 3.68 3.64 3 5 C1.68 5 0.36 5 -1 5 C-0.67 3.35 -0.34 1.7 0 0 Z " fill="#D2CBC0" transform="translate(234,142)"/>
<path d="M0 0 C0 1.32 0 2.64 0 4 C-2.64 4 -5.28 4 -8 4 C-4.5 0 -4.5 0 0 0 Z " fill="#62819B" transform="translate(312,117)"/>
<path d="M0 0 C0.66 0 1.32 0 2 0 C3.25 6.5 3.25 6.5 1 11 C0.67 7.37 0.34 3.74 0 0 Z " fill="#262D37" transform="translate(67,90)"/>
<path d="M0 0 C0.99 0.33 1.98 0.66 3 1 C2.67 1.66 2.34 2.32 2 3 C2.66 3 3.32 3 4 3 C4 4.32 4 5.64 4 7 C2.68 7 1.36 7 0 7 C0 4.69 0 2.38 0 0 Z " fill="#D7D2CC" transform="translate(119,151)"/>
<path d="M0 0 C4.29 0 8.58 0 13 0 C12.34 1.32 11.68 2.64 11 4 C10.34 3.67 9.68 3.34 9 3 C9 2.34 9 1.68 9 1 C6.03 1 3.06 1 0 1 C0 0.67 0 0.34 0 0 Z " fill="#E6DED5" transform="translate(216,148)"/>
<path d="M0 0 C0.99 0 1.98 0 3 0 C3.33 1.65 3.66 3.3 4 5 C2.68 5.33 1.36 5.66 0 6 C0 4.02 0 2.04 0 0 Z " fill="#E5DED6" transform="translate(73,147)"/>
<path d="M0 0 C2.97 0.33 5.94 0.66 9 1 C8.67 2.65 8.34 4.3 8 6 C7.34 6 6.68 6 6 6 C6 4.68 6 3.36 6 2 C3.03 1.505 3.03 1.505 0 1 C0 0.67 0 0.34 0 0 Z " fill="#05080F" transform="translate(100,97)"/>
<path d="M0 0 C0.66 0.33 1.32 0.66 2 1 C2.66 1 3.32 1 4 1 C4 1.66 4 2.32 4 3 C4.99 2.67 5.98 2.34 7 2 C6.67 2.99 6.34 3.98 6 5 C3.69 4.67 1.38 4.34 -1 4 C-0.67 2.68 -0.34 1.36 0 0 Z " fill="#605F60" transform="translate(141,79)"/>
<path d="M0 0 C0.33 0.99 0.66 1.98 1 3 C0.01 3.33 -0.98 3.66 -2 4 C-2.33 4.99 -2.66 5.98 -3 7 C-4 6 -4 6 -4.0625 3.4375 C-4.041875 2.633125 -4.02125 1.82875 -4 1 C-2.68 0.67 -1.36 0.34 0 0 Z " fill="#8EA6B0" transform="translate(160,77)"/>
<path d="M0 0 C0.33 0.99 0.66 1.98 1 3 C0.34 3 -0.32 3 -1 3 C-1 4.32 -1 5.64 -1 7 C-1.99 6.67 -2.98 6.34 -4 6 C-3.67 5.34 -3.34 4.68 -3 4 C-3.99 4.33 -4.98 4.66 -6 5 C-6 4.34 -6 3.68 -6 3 C-4.02 2.01 -2.04 1.02 0 0 Z " fill="#8AA8BC" transform="translate(187,64)"/>
<path d="M0 0 C2 3 2 3 1.7578125 5.04296875 C1.171875 7.02864583 0.5859375 9.01432292 0 11 C-0.66 11 -1.32 11 -2 11 C-2 9.02 -2 7.04 -2 5 C-1.34 5 -0.68 5 0 5 C0 3.35 0 1.7 0 0 Z " fill="#4D5754" transform="translate(162,62)"/>
<path d="M0 0 C1.65 0 3.3 0 5 0 C2.16569547 3.2542015 0.31392226 4.5206753 -4 5 C-4 4.01 -4 3.02 -4 2 C-2.68 2 -1.36 2 0 2 C0 1.34 0 0.68 0 0 Z " fill="#A2C1DA" transform="translate(148,62)"/>
<path d="M0 0 C0.66 0 1.32 0 2 0 C2.625 3.375 2.625 3.375 3 7 C2.34 7.66 1.68 8.32 1 9 C-0.4783226 6.04335481 -0.06032783 3.25770263 0 0 Z " fill="#0B0B0F" transform="translate(72,127)"/>
<path d="M0 0 C3.3 0.66 6.6 1.32 10 2 C10 2.33 10 2.66 10 3 C6.37 3 2.74 3 -1 3 C-0.67 2.01 -0.34 1.02 0 0 Z " fill="#25484B" transform="translate(130,117)"/>
<path d="M0 0 C0.66 0.33 1.32 0.66 2 1 C2 1.99 2 2.98 2 4 C-0.31 4.66 -2.62 5.32 -5 6 C-4.67 5.01 -4.34 4.02 -4 3 C-3.34 3 -2.68 3 -2 3 C-2 2.34 -2 1.68 -2 1 C-1.34 0.67 -0.68 0.34 0 0 Z " fill="#131B2A" transform="translate(229,94)"/>
<path d="M0 0 C-0.54226981 3.79588866 -2.20127563 5.47211993 -5 8 C-5.66 7.67 -6.32 7.34 -7 7 C-3.86206897 0 -3.86206897 0 0 0 Z " fill="#2B363D" transform="translate(242,84)"/>
<path d="M0 0 C0.33 0.99 0.66 1.98 1 3 C1.66 3.33 2.32 3.66 3 4 C1.35 4 -0.3 4 -2 4 C-2 4.66 -2 5.32 -2 6 C-3.32 6 -4.64 6 -6 6 C-5.67 5.01 -5.34 4.02 -5 3 C-3.35 3 -1.7 3 0 3 C0 2.01 0 1.02 0 0 Z " fill="#5F6468" transform="translate(126,80)"/>
<path d="M0 0 C0.66 0 1.32 0 2 0 C3.53166168 4.08443115 2.63081652 7.79455657 2 12 C1.67 12 1.34 12 1 12 C0.67 8.04 0.34 4.08 0 0 Z " fill="#09111F" transform="translate(63,80)"/>
<path d="M0 0 C2.475 0.495 2.475 0.495 5 1 C5.33 1.99 5.66 2.98 6 4 C4.35 4 2.7 4 1 4 C0.67 2.68 0.34 1.36 0 0 Z " fill="#333131" transform="translate(145,157)"/>
<path d="M0 0 C-3.4019487 2.09350689 -6.05272412 2.17942163 -10 2 C-10.33 1.34 -10.66 0.68 -11 0 C-7.18243176 -1.37432457 -3.92744671 -0.67975039 0 0 Z " fill="#100C09" transform="translate(177,148)"/>
<path d="M0 0 C0.66 0.99 1.32 1.98 2 3 C-0.64 3.33 -3.28 3.66 -6 4 C-5.67 3.01 -5.34 2.02 -5 1 C-3.35 0.67 -1.7 0.34 0 0 Z " fill="#080606" transform="translate(150,144)"/>
<path d="M0 0 C3.63 0 7.26 0 11 0 C11 0.99 11 1.98 11 3 C7.37 2.34 3.74 1.68 0 1 C0 0.67 0 0.34 0 0 Z " fill="#060B10" transform="translate(98,94)"/>
<path d="M0 0 C0 1.32 0 2.64 0 4 C-0.66 4 -1.32 4 -2 4 C-2.33 4.66 -2.66 5.32 -3 6 C-3.99 5.34 -4.98 4.68 -6 4 C-2.25 0 -2.25 0 0 0 Z " fill="#7499B3" transform="translate(248,87)"/>
<path d="M0 0 C1.32 0.33 2.64 0.66 4 1 C3.67 2.65 3.34 4.3 3 6 C2.01 5.67 1.02 5.34 0 5 C0 3.35 0 1.7 0 0 Z " fill="#38392B" transform="translate(161,71)"/>
<path d="M0 0 C2.66735273 2.48952921 4.55746343 4.63408134 6 8 C4.02 7.34 2.04 6.68 0 6 C0 4.02 0 2.04 0 0 Z " fill="#879A9C" transform="translate(151,64)"/>
<path d="M0 0 C0.66 0.66 1.32 1.32 2 2 C1.625 4.625 1.625 4.625 1 7 C0.34 7 -0.32 7 -1 7 C-1.66 5.35 -2.32 3.7 -3 2 C-2.01 2 -1.02 2 0 2 C0 1.34 0 0.68 0 0 Z " fill="#98AFBB" transform="translate(161,60)"/>
<path d="M0 0 C0.33 0.66 0.66 1.32 1 2 C1.66 2 2.32 2 3 2 C3 3.65 3 5.3 3 7 C2.01 7 1.02 7 0 7 C0 4.69 0 2.38 0 0 Z " fill="#080E13" transform="translate(72,119)"/>
<path d="M0 0 C1.32 0.33 2.64 0.66 4 1 C4 1.99 4 2.98 4 4 C3.01 4 2.02 4 1 4 C0.67 4.66 0.34 5.32 0 6 C0 4.02 0 2.04 0 0 Z " fill="#253D37" transform="translate(158,116)"/>
<path d="M0 0 C-0.33 1.65 -0.66 3.3 -1 5 C-1.66 4.67 -2.32 4.34 -3 4 C-3 3.34 -3 2.68 -3 2 C-4.98 2 -6.96 2 -9 2 C-9 1.67 -9 1.34 -9 1 C-2.25 0 -2.25 0 0 0 Z " fill="#7D8986" transform="translate(186,113)"/>
<path d="M0 0 C1.65 0 3.3 0 5 0 C5 0.99 5 1.98 5 3 C3.02 3 1.04 3 -1 3 C-0.67 2.01 -0.34 1.02 0 0 Z " fill="#736D6D" transform="translate(101,113)"/>
<path d="M0 0 C0.66 0.66 1.32 1.32 2 2 C2.66 1.34 3.32 0.68 4 0 C4 1.98 4 3.96 4 6 C2.68 6 1.36 6 0 6 C0 4.02 0 2.04 0 0 Z " fill="#26342C" transform="translate(163,65)"/>
<path d="M0 0 C1.5 1.375 1.5 1.375 3 3 C3 3.66 3 4.32 3 5 C3.66 5.33 4.32 5.66 5 6 C3.35 6.66 1.7 7.32 0 8 C-1.125 2.25 -1.125 2.25 0 0 Z " fill="#8FA6B3" transform="translate(167,62)"/>
<path d="M0 0 C1.98 0 3.96 0 6 0 C6 0.99 6 1.98 6 3 C6.66 3.33 7.32 3.66 8 4 C6.68 4 5.36 4 4 4 C4 3.34 4 2.68 4 2 C2.68 1.67 1.36 1.34 0 1 C0 0.67 0 0.34 0 0 Z " fill="#82A5BE" transform="translate(76,53)"/>
</svg>
